<?xml version="1.0" standalone="no"?><!DOCTYPE svg PUBLIC "-//W3C//DTD SVG 1.1//EN"
        "http://www.w3.org/Graphics/SVG/1.1/DTD/svg11.dtd">
<svg class="icon" width="64px" height="64.00px" viewBox="0 0 1024 1024" version="1.1"
     xmlns="http://www.w3.org/2000/svg">
    <path fill="#ffffff"
          d="M806.4 102.4h-563.2c-56.32 0-102.4 46.08-102.4 102.4v614.4c0 56.32 46.08 102.4 102.4 102.4h563.2c56.32 0 102.4-46.08 102.4-102.4V204.8c0-56.32-46.08-102.4-102.4-102.4z m51.2 716.8c0 28.16-23.04 51.2-51.2 51.2h-563.2c-28.16 0-51.2-23.04-51.2-51.2V307.2h665.6v512z m0-563.2h-665.6V204.8c0-28.16 23.04-51.2 51.2-51.2h563.2c28.16 0 51.2 23.04 51.2 51.2v51.2z m-128 512c43.52 0 76.8-33.28 76.8-76.8s-33.28-76.8-76.8-76.8-76.8 33.28-76.8 76.8 33.28 76.8 76.8 76.8z m-25.6-102.4h51.2v51.2h-51.2v-51.2z m25.6-102.4c43.52 0 76.8-33.28 76.8-76.8s-33.28-76.8-76.8-76.8-76.8 33.28-76.8 76.8 33.28 76.8 76.8 76.8z m-25.6-102.4h51.2v51.2h-51.2v-51.2z m-179.2 307.2c43.52 0 76.8-33.28 76.8-76.8s-33.28-76.8-76.8-76.8-76.8 33.28-76.8 76.8 33.28 76.8 76.8 76.8z m-25.6-102.4h51.2v51.2h-51.2v-51.2z m25.6-102.4c43.52 0 76.8-33.28 76.8-76.8s-33.28-76.8-76.8-76.8-76.8 33.28-76.8 76.8 33.28 76.8 76.8 76.8z m-25.6-102.4h51.2v51.2h-51.2v-51.2z m-179.2 307.2c43.52 0 76.8-33.28 76.8-76.8s-33.28-76.8-76.8-76.8-76.8 33.28-76.8 76.8 33.28 76.8 76.8 76.8z m-25.6-102.4h51.2v51.2h-51.2v-51.2z m25.6-102.4c43.52 0 76.8-33.28 76.8-76.8s-33.28-76.8-76.8-76.8-76.8 33.28-76.8 76.8 33.28 76.8 76.8 76.8z m-25.6-102.4h51.2v51.2h-51.2v-51.2z"/>
</svg>
