<?xml version="1.0" encoding="UTF-8" standalone="no"?>
<!-- Copyright 2017 mathsisfun.com -->

<svg
   xmlns:dc="http://purl.org/dc/elements/1.1/"
   xmlns:cc="http://creativecommons.org/ns#"
   xmlns:rdf="http://www.w3.org/1999/02/22-rdf-syntax-ns#"
   xmlns:svg="http://www.w3.org/2000/svg"
   xmlns="http://www.w3.org/2000/svg"
   xmlns:sodipodi="http://sodipodi.sourceforge.net/DTD/sodipodi-0.dtd"
   xmlns:inkscape="http://www.inkscape.org/namespaces/inkscape"
   width="127.2"
   height="91.5"
   version="1.1"
   id="svg2"
   inkscape:version="0.91 r13725"
   sodipodi:docname="absolute-deviation.svg">
  <metadata
     id="metadata189">
    <rdf:RDF>
      <cc:Work
         rdf:about="">
        <dc:format>image/svg+xml</dc:format>
        <dc:type
           rdf:resource="http://purl.org/dc/dcmitype/StillImage" />
      </cc:Work>
    </rdf:RDF>
  </metadata>
  <sodipodi:namedview
     pagecolor="#ffffff"
     bordercolor="#666666"
     borderopacity="1"
     objecttolerance="10"
     gridtolerance="10"
     guidetolerance="10"
     inkscape:pageopacity="0"
     inkscape:pageshadow="2"
     inkscape:window-width="1366"
     inkscape:window-height="745"
     id="namedview187"
     showgrid="false"
     inkscape:zoom="1.6009965"
     inkscape:cx="99.640029"
     inkscape:cy="-13.155077"
     inkscape:window-x="-8"
     inkscape:window-y="-8"
     inkscape:window-maximized="1"
     inkscape:current-layer="svg2" />
  <defs
     id="defs4">
    <marker
       style="overflow:visible;"
       orient="auto"
       id="id02">
      <path
         d="M 0,0 5,-5 -12.5,0 5,5 Z"
         transform="matrix(0.4,0,0,0.4,4,0)"
         style="stroke:black; stroke-width:1pt;"
         id="path7" />
    </marker>
    <marker
       style="overflow:visible;"
       orient="auto"
       id="id01">
      <path
         d="M 0,0 5,-5 -12.5,0 5,5 Z"
         transform="matrix(-0.8,0,0,-0.8,-10,0)"
         style="stroke:black; stroke-width:1pt;"
         id="path10" />
    </marker>
    <marker
       style="overflow:visible;"
       orient="auto"
       id="id03">
      <path
         d="M 0,0 5,-5 -12.5,0 5,5 Z"
         transform="matrix(-0.4,0,0,-0.4,-4,0)"
         style="stroke:black; stroke-width:1pt;"
         id="path13" />
    </marker>
  </defs>
  <rect
     x="0"
     y="0"
     width="127.2"
     height="91.5"
     style="color:black; overflow:visible; fill:#f5ffd9; stroke-width:2.32;"
     id="rect15" />
  <ellipse
     cx="33.6"
     cy="58.8"
     rx="6.5"
     ry="10"
     style="color:black; overflow:visible; fill:white; stroke-width:1.29;"
     id="ellipse17" />
  <path
     d="M 47.2,160.9 V 60.3"
     style="fill:#c4a000; stroke:#c4a000; stroke-width:4.25;"
     id="path19" />
  <path
     d="m -170.9,105.5 v 23.2"
     style="fill:none; stroke:black; stroke-width:0.95;"
     id="path21" />
  <path
     d="m -146.7,105.5 v 23.2"
     style="fill:none; stroke:#0000ff; stroke-width:0.32px;"
     id="path23" />
  <path
     d="m -122.5,105.5 v 23.2"
     style="fill:none; stroke:#0000ff; stroke-width:0.32px;"
     id="path25" />
  <path
     d="m -98.4,105.5 v 23.2"
     style="fill:none; stroke:#0000ff; stroke-width:0.32px;"
     id="path27" />
  <path
     d="m -74.2,105.5 v 23.2"
     style="fill:none; stroke:#0000ff; stroke-width:0.32px;"
     id="path29" />
  <path
     d="m -50.1,105.5 v 23.2"
     style="fill:none; stroke:#0000ff; stroke-width:0.32px;"
     id="path31" />
  <path
     d="m -25.9,105.5 v 23.2"
     style="fill:none; stroke:#0000ff; stroke-width:0.32px;"
     id="path33" />
  <path
     d="m -1.8,105.5 v 23.2"
     style="fill:none; stroke:#0000ff; stroke-width:0.32px;"
     id="path35" />
  <path
     d="m 22.4,105.5 v 23.2"
     style="fill:none; stroke:#0000ff; stroke-width:0.32px;"
     id="path37" />
  <path
     d="m 46.5,105.5 v 23.2"
     style="fill:none; stroke:#0000ff; stroke-width:0.32px;"
     id="path39" />
  <text
     x="-149.8"
     y="147.7"
     style="font-family:Arial; font-size:15.2px; color:black; overflow:visible; fill:#0000ff; stroke-width:0.5px;"
     id="text41">1</text>
  <text
     x="-126.1"
     y="147.7"
     style="font-family:Arial; font-size:15.2px; color:black; overflow:visible; fill:#0000ff; stroke-width:0.5px;"
     id="text43">2</text>
  <text
     x="-102.1"
     y="147.6"
     style="font-family:Arial; font-size:15.2px; color:black; overflow:visible; fill:#0000ff; stroke-width:0.5px;"
     id="text45">3</text>
  <text
     x="-77.7"
     y="147.7"
     style="font-family:Arial; font-size:15.2px; color:black; overflow:visible; fill:#0000ff; stroke-width:0.5px;"
     id="text47">4</text>
  <text
     x="-53.9"
     y="147.6"
     style="font-family:Arial; font-size:15.2px; color:black; overflow:visible; fill:#0000ff; stroke-width:0.5px;"
     id="text49">5</text>
  <text
     x="-29.7"
     y="147.6"
     style="font-family:Arial; font-size:15.2px; color:black; overflow:visible; fill:#0000ff; stroke-width:0.5px;"
     id="text51">6</text>
  <text
     x="-5.6"
     y="147.6"
     style="font-family:Arial; font-size:15.2px; color:black; overflow:visible; fill:#0000ff; stroke-width:0.5px;"
     id="text53">7</text>
  <text
     x="18.6"
     y="147.6"
     style="font-family:Arial; font-size:15.2px; color:black; overflow:visible; fill:#0000ff; stroke-width:0.5px;"
     id="text55">8</text>
  <text
     x="42.7"
     y="147.6"
     style="font-family:Arial; font-size:15.2px; color:black; overflow:visible; fill:#0000ff; stroke-width:0.5px;"
     id="text57">9</text>
  <path
     d="m 70.7,105.5 v 23.2"
     style="fill:none; stroke:#0000ff; stroke-width:0.32px;"
     id="path59" />
  <text
     x="62.1"
     y="147.6"
     style="font-family:Arial; font-size:15.2px; color:black; overflow:visible; fill:#0000ff; stroke-width:0.5px;"
     id="text61">10</text>
  <path
     d="M -171.6,118.5 H 281"
     style="marker-end:url(#id01); fill:#0000ff; fill-opacity:0.75; stroke:#0000ff; stroke-width:1.21;"
     id="path63" />
  <text
     x="-176.3"
     y="149.1"
     style="font-family:Arial; font-size:22.1px; color:black; overflow:visible; fill:black; stroke-width:0.5px;"
     id="text65">0</text>
  <path
     d="m 94.9,105.5 v 23.2"
     style="fill:none; stroke:#0000ff; stroke-width:0.32px;"
     id="path67" />
  <path
     d="m 119,105.5 v 23.2"
     style="fill:none; stroke:#0000ff; stroke-width:0.32px;"
     id="path69" />
  <path
     d="m 143.2,105.5 v 23.2"
     style="fill:none; stroke:#0000ff; stroke-width:0.32px;"
     id="path71" />
  <path
     d="m 167.3,105.5 v 23.2"
     style="fill:none; stroke:#0000ff; stroke-width:0.32px;"
     id="path73" />
  <path
     d="m 191.5,105.5 v 23.2"
     style="fill:none; stroke:#0000ff; stroke-width:0.32px;"
     id="path75" />
  <path
     d="m 215.6,105.5 v 23.2"
     style="fill:none; stroke:#0000ff; stroke-width:0.32px;"
     id="path77" />
  <path
     d="m 239.8,105.5 v 23.2"
     style="fill:none; stroke:#0000ff; stroke-width:0.32px;"
     id="path79" />
  <path
     d="m 263.9,105.5 v 23.2"
     style="fill:none; stroke:#0000ff; stroke-width:0.32px;"
     id="path81" />
  <text
     x="86.4"
     y="147.7"
     style="font-family:Arial; font-size:15.2px; color:black; overflow:visible; fill:#0000ff; stroke-width:0.5px;"
     id="text83">11</text>
  <text
     x="110.2"
     y="147.7"
     style="font-family:Arial; font-size:15.2px; color:black; overflow:visible; fill:#0000ff; stroke-width:0.5px;"
     id="text85">12</text>
  <text
     x="134.2"
     y="147.6"
     style="font-family:Arial; font-size:15.2px; color:black; overflow:visible; fill:#0000ff; stroke-width:0.5px;"
     id="text87">13</text>
  <text
     x="158.5"
     y="147.7"
     style="font-family:Arial; font-size:15.2px; color:black; overflow:visible; fill:#0000ff; stroke-width:0.5px;"
     id="text89">14</text>
  <text
     x="182.4"
     y="147.6"
     style="font-family:Arial; font-size:15.2px; color:black; overflow:visible; fill:#0000ff; stroke-width:0.5px;"
     id="text91">15</text>
  <text
     x="207.2"
     y="147.6"
     style="font-family:Arial; font-size:15.2px; color:black; overflow:visible; fill:#0000ff; stroke-width:0.5px;"
     id="text93">16</text>
  <text
     x="231.3"
     y="147.6"
     style="font-family:Arial; font-size:15.2px; color:black; overflow:visible; fill:#0000ff; stroke-width:0.5px;"
     id="text95">17</text>
  <text
     x="255.4"
     y="147.6"
     style="font-family:Arial; font-size:15.2px; color:black; overflow:visible; fill:#0000ff; stroke-width:0.5px;"
     id="text97">18</text>
  <path
     d="m -98,60.3 v 46.6"
     style="fill:#edd400; stroke:#edd400; stroke-width:1.97;"
     id="path99" />
  <path
     d="m -26.9,60.3 v 46.6"
     style="fill:#edd400; stroke:#edd400; stroke-width:1.97;"
     id="path101" />
  <path
     d="m -2.1,60.3 v 46.6"
     style="fill:#edd400; stroke:#edd400; stroke-width:1.97;"
     id="path103" />
  <path
     d="m 21.4,60.3 v 46.6"
     style="fill:#edd400; stroke:#edd400; stroke-width:1.97;"
     id="path105" />
  <path
     d="m 94.4,60.3 v 46.6"
     style="fill:#edd400; stroke:#edd400; stroke-width:1.97;"
     id="path107" />
  <path
     d="m 190.9,60.3 v 46.6"
     style="fill:#edd400; stroke:#edd400; stroke-width:1.97;"
     id="path109" />
  <path
     d="m 215.1,60.3 v 46.6"
     style="fill:#edd400; stroke:#edd400; stroke-width:1.97;"
     id="path111" />
  <text
     x="24.9"
     y="180.5"
     style="color:#000000;font-size:22.60000038px;font-family:'Comic Sans MS';overflow:visible;fill:#c4a000;stroke-width:0.5px"
     id="text113">平均</text>
  <path
     d="M -2.4,77 H 44.1"
     style="marker-start:url(#id02); marker-end:url(#id03); fill:none; stroke:black; stroke-width:1.43;"
     id="path115" />
  <path
     d="m -24.8,85.9 h 70"
     style="marker-start:url(#id02); marker-end:url(#id03); fill:none; stroke:black; stroke-width:1.43;"
     id="path117" />
  <path
     d="M -24.8,95.4 H 44.6"
     style="marker-start:url(#id02); marker-end:url(#id03); fill:none; stroke:black; stroke-width:1.43;"
     id="path119" />
  <path
     d="M -95.4,105.6 H 43.8"
     style="marker-start:url(#id02); marker-end:url(#id03); fill:none; stroke:black; stroke-width:1.43;"
     id="path121" />
  <path
     d="M 22.3,67.5 H 45"
     style="marker-start:url(#id02); marker-end:url(#id03); fill:none; stroke:black; stroke-width:1.43;"
     id="path123" />
  <path
     d="M 50.3,75.1 H 92.5"
     style="marker-start:url(#id02); marker-end:url(#id03); fill:none; stroke:black; stroke-width:1.43;"
     id="path125" />
  <path
     d="M 51.2,84.7 H 187.5"
     style="marker-start:url(#id02); marker-end:url(#id03); fill:none; stroke:black; stroke-width:1.43;"
     id="path127" />
  <path
     d="M 50.8,94.2 H 211"
     style="marker-start:url(#id02); marker-end:url(#id03); fill:none; stroke:black; stroke-width:1.43;"
     id="path129" />
  <ellipse
     cx="21.3"
     cy="76.1"
     rx="6.6"
     ry="6.8"
     style="color:black; overflow:visible; fill:white; stroke-width:1.25;"
     id="ellipse131" />
  <ellipse
     cx="138.7"
     cy="95.3"
     rx="7.7"
     ry="9.3"
     style="color:black; overflow:visible; fill:white; stroke-width:1.43;"
     id="ellipse133" />
  <ellipse
     cx="71.4"
     cy="73.7"
     rx="6.6"
     ry="9.2"
     style="color:black; overflow:visible; fill:white; stroke-width:1.26;"
     id="ellipse135" />
  <ellipse
     cx="110.9"
     cy="82.8"
     rx="6.5"
     ry="10"
     style="color:black; overflow:visible; fill:white; stroke-width:1.29;"
     id="ellipse137" />
  <ellipse
     cx="9.2"
     cy="91.2"
     rx="7.3"
     ry="11.6"
     style="color:black; overflow:visible; fill:white; stroke-width:1.39;"
     id="ellipse139" />
  <ellipse
     cx="-39.3"
     cy="104.3"
     rx="6.6"
     ry="10"
     style="color:black; overflow:visible; fill:white; stroke-width:1.16;"
     id="ellipse141" />
  <text
     x="-44.2"
     y="110.7"
     style="font-family:'Comic Sans MS'; font-size:15.3px; color:black; overflow:visible; fill:black; stroke-width:0.5px;"
     id="text143">6</text>
  <text
     x="3.8"
     y="103.2"
     style="font-family:'Comic Sans MS'; font-size:15.3px; color:black; overflow:visible; fill:black; stroke-width:0.5px;"
     id="text145">3</text>
  <text
     x="4.1"
     y="91.1"
     style="font-family:'Comic Sans MS'; font-size:15.3px; color:black; overflow:visible; fill:black; stroke-width:0.5px;"
     id="text147">3</text>
  <text
     x="16.9"
     y="82.3"
     style="font-family:'Comic Sans MS'; font-size:15.3px; color:black; overflow:visible; fill:black; stroke-width:0.5px;"
     id="text149">2</text>
  <text
     x="30.3"
     y="63.5"
     style="font-family:'Comic Sans MS'; font-size:15.3px; color:black; overflow:visible; fill:black; stroke-width:0.5px;"
     id="text151">1</text>
  <text
     x="66.5"
     y="78.9"
     style="font-family:'Comic Sans MS'; font-size:15.3px; color:black; overflow:visible; fill:black; stroke-width:0.5px;"
     id="text153">2</text>
  <text
     x="105.6"
     y="87.8"
     style="font-family:'Comic Sans MS'; font-size:15.3px; color:black; overflow:visible; fill:black; stroke-width:0.5px;"
     id="text155">6</text>
  <text
     x="133.7"
     y="100.5"
     style="font-family:'Comic Sans MS'; font-size:15.3px; color:black; overflow:visible; fill:black; stroke-width:0.5px;"
     id="text157">7</text>
  <g
     transform="translate(-605.808,-1123.8)"
     id="g161">
    <path
       d="m 655.7,1157.8 c -1.8,-0.1 -6.1,1.8 -5.8,1.8 -1.5,0.7 -4.7,4.7 -5.3,7.6 0,1.1 -3.4,1.1 -1.8,-0.6 1.5,-4.7 5.1,-8.8 10,-10 1.7,-0.6 4.9,-1.4 3,1.1 v 0.1 z"
       style="color:black; overflow:visible; fill:black; stroke-width:1.5;"
       id="path163" />
    <path
       d="m 643.1,1162.5 c 0,2.4 0.3,4.7 -0.2,7.1 -0.6,-1.4 -2.3,1.1 -0.6,-0.7 1.4,-1.7 4.8,-4.9 6,-4.3 0.3,1.1 -1.6,2.5 -0.2,1.5 -2.8,0.6 -4.2,5.9 -7,4.4 0.2,-2.3 -0.2,-5.7 0.4,-7.6 0.5,-0.1 1.1,-0.3 1.6,-0.3 z"
       style="color:black; overflow:visible; fill:black; stroke-width:1.5;"
       id="path165" />
  </g>
  <g
     transform="translate(-605.808,-1123.8)"
     id="g167">
    <path
       d="m 662.6,1157.1 c 1,2.8 4.5,4.2 6.6,6.4 3,2.4 5.7,5.1 7.1,8.8 1.6,3 1.4,6.5 1.8,9.8 -2,1.1 -2.3,-0.4 -2.2,-2.3 0,-5.6 -3,-10.9 -7.4,-14.2 -2.5,-2.4 -5.7,-4.2 -7.7,-7 -0.9,-2 0.6,-1.2 1.8,-1.4 z"
       style="color:black; overflow:visible; fill:black; stroke-width:1.5;"
       id="path169" />
    <path
       d="m 673.1,1176.4 c 2.9,2.4 4.1,6.1 4.7,9.7 -1,-1.2 -2.2,1.6 -1.5,-1 -0.1,-2.9 1.6,-6.3 3.8,-7.9 3.2,0 -0.4,2.3 -0.9,3.9 -1.8,1.7 0.3,6.3 -2.8,6.4 -1.4,-2.8 -1.3,-6.4 -3.8,-8.8 -1.8,-1.3 -0.5,-1.2 0.5,-2.3 z"
       style="color:black; overflow:visible; fill:black; stroke-width:1.5;"
       id="path171" />
  </g>
  <g
     transform="translate(-605.808,-1123.8)"
     id="g173">
    <path
       d="m 672.1,1156.7 c 2.9,2.2 6,4.3 9.7,5 4.9,1.3 10,1.6 14.9,2.9 4.9,1.7 8.1,6.2 11.1,10.3 2.6,4.1 4.7,8.6 5.5,13.4 0.1,2 3.3,4.5 0.2,5.3 -1.5,-1.9 -2.2,-4.7 -2.7,-7.2 -1.9,-6.9 -5.9,-13.1 -11.1,-17.8 -3.9,-3.4 -9.3,-2.9 -14.1,-4.1 -4.9,-0.8 -9.8,-2.2 -13.6,-5.4 -2.1,-0.9 -0.5,-1.1 0.2,-2.3 z"
       style="color:black; overflow:visible; fill:black; stroke-width:1.5;"
       id="path175" />
    <path
       d="m 708.4,1186 c 2.6,1.8 4.8,5.7 6.2,7.6 -2.4,1.9 -0.8,-3.1 -0.7,-4.5 0.2,-2 0.4,-4.8 3,-4 -1.1,2.9 -1.7,6.1 -1.5,9.2 -2.6,3.1 -4.1,-3.2 -6,-4.6 -1.3,-1.4 -3.5,-2.5 -1,-3.7 z"
       style="color:black; overflow:visible; fill:black; stroke-width:1.5;"
       id="path177" />
  </g>
  <g
     transform="matrix(-0.996034,0.088977,0.088977,0.996034,586.172,-1178.08)"
     id="g179">
    <path
       d="m 662.6,1157.1 c 1,2.8 4.5,4.2 6.6,6.4 3,2.4 5.7,5.1 7.1,8.8 1.6,3 1.4,6.5 1.8,9.8 -2,1.1 -2.3,-0.4 -2.2,-2.3 0,-5.6 -3,-10.9 -7.4,-14.2 -2.5,-2.4 -5.7,-4.2 -7.7,-7 -0.9,-2 0.6,-1.2 1.8,-1.4 z"
       style="color:black; overflow:visible; fill:black; stroke-width:1.5;"
       id="path181" />
    <path
       d="m 673.1,1176.4 c 2.9,2.4 4.1,6.1 4.7,9.7 -1,-1.2 -2.2,1.6 -1.5,-1 -0.1,-2.9 1.6,-6.3 3.8,-7.9 3.2,0 -0.4,2.3 -0.9,3.9 -1.8,1.7 0.3,6.3 -2.8,6.4 -1.4,-2.8 -1.3,-6.4 -3.8,-8.8 -1.8,-1.3 -0.5,-1.2 0.5,-2.3 z"
       style="color:black; overflow:visible; fill:black; stroke-width:1.5;"
       id="path183" />
  </g>
  <text
     x="23.200001"
     y="28.299999"
     style="color:#000000;font-size:14.5px;font-family:'Comic Sans MS';text-align:center;overflow:visible;fill:#000000;stroke-width:0.5px"
     id="text185">绝对偏差</text>
</svg>
