<?xml version="1.0" standalone="no"?><!DOCTYPE svg PUBLIC "-//W3C//DTD SVG 1.1//EN" "http://www.w3.org/Graphics/SVG/1.1/DTD/svg11.dtd"><svg t="1722838370222" class="icon" viewBox="0 0 1024 1024" version="1.1" xmlns="http://www.w3.org/2000/svg" p-id="1087" xmlns:xlink="http://www.w3.org/1999/xlink" width="200" height="200"><path d="M969.847188 775.053748c-16.029492 87.336174-110.2743 181.576923-197.610474 197.610474-167.775892 27.533058-335.555843 27.533058-503.331735 0-87.336174-16.029492-181.580982-110.2743-197.606415-197.610474-27.537117-167.775892-27.537117-335.555843 0-503.331735 16.029492-87.336174 110.2743-181.580982 197.606415-197.606415 167.775892-27.537117 335.555843-27.537117 503.331735 0 87.336174 16.029492 181.576923 110.270241 197.610474 197.606415 27.533058 167.779951 27.533058 335.555843 0 503.331735z" fill="#B1C24C" p-id="1088"></path><path d="M845.719088 463.288448c-1.944322 50.994811-15.213608 92.203067-69.362361 115.299499-52.143544 23.985381-145.178732 29.858937-260.29963 30.719472-115.124957-0.860535-208.156086-6.734092-260.29963-30.719472-54.152812-23.096432-67.418039-64.304688-69.358301-115.299499 1.940263-50.994811 15.209548-92.203067 69.358301-115.2995 52.143544-23.98944 145.174673-29.862997 260.29963-30.723531 115.120898 0.860535 208.156086 6.734092 260.29963 30.719472 54.148753 23.100491 67.422098 64.308747 69.362361 115.303559z" fill="#6A7622" p-id="1089"></path><path d="M428.432725 474.227795c1.412576 38.776839-13.833504 54.018861-52.606284 52.606284-38.77278 1.412576-54.018861-13.829445-52.606285-52.606284-1.412576-38.77278 13.833504-54.018861 52.606285-52.606285 38.77278-1.412576 54.018861 13.833504 52.606284 52.606285zM720.884699 474.227795c1.412576 38.776839-13.833504 54.018861-52.606284 52.606284-38.77278 1.412576-54.018861-13.829445-52.606285-52.606284-1.412576-38.77278 13.833504-54.018861 52.606285-52.606285 38.768721-1.412576 54.014802 13.833504 52.606284 52.606285z" fill="#FFFFFF" p-id="1090"></path><path d="M595.214131 751.486457c-0.426208 11.300609-3.369075 20.437704-15.371914 25.556263-11.560393 5.317456-32.180758 6.620436-57.700488 6.811215-25.515672-0.190779-46.136036-1.493759-57.692371-6.811215-12.002838-5.118559-14.945705-14.255654-15.375973-25.556263 0.430267-11.304668 3.373134-20.437704 15.375973-25.560322 11.556334-5.317456 32.176699-6.616377 57.692371-6.807156 25.519731 0.190779 46.140095 1.4897 57.700488 6.807156 11.998779 5.122618 14.941646 14.255654 15.371914 25.560322z" fill="#6A7622" p-id="1091"></path></svg>