<?xml version="1.0" standalone="no"?><!DOCTYPE svg PUBLIC "-//W3C//DTD SVG 1.1//EN" "http://www.w3.org/Graphics/SVG/1.1/DTD/svg11.dtd"><svg t="1675081724190" class="icon" viewBox="0 0 1024 1024" version="1.1" xmlns="http://www.w3.org/2000/svg" p-id="1865" xmlns:xlink="http://www.w3.org/1999/xlink" width="200" height="200"><path d="M1019.016533 499.985067l-273.066666-273.066667a17.066667 17.066667 0 0 0-24.132267 24.132267l260.983467 260.983466-260.983467 260.983467a17.066667 17.066667 0 0 0 24.132267 24.1664l273.066666-273.066667a17.066667 17.066667 0 0 0 0-24.132266z m-716.8-273.1008a17.066667 17.066667 0 0 0-24.132266 0l-273.066667 273.066666a17.066667 17.066667 0 0 0 0 24.132267l273.066667 273.066667a17.066667 17.066667 0 1 0 24.098133-24.1664L41.233067 512l260.983466-260.983467a17.066667 17.066667 0 0 0 0-24.132266zM705.9456 18.2272a17.169067 17.169067 0 0 0-22.1184 9.659733l-375.466667 955.733334a17.066667 17.066667 0 0 0 31.778134 12.458666l375.466666-955.733333a16.9984 16.9984 0 0 0-9.659733-22.1184z" fill="" p-id="1866"></path></svg>