<?xml version="1.0" standalone="no"?><!DOCTYPE svg PUBLIC "-//W3C//DTD SVG 1.1//EN" "http://www.w3.org/Graphics/SVG/1.1/DTD/svg11.dtd"><svg t="1675080133431" class="icon" viewBox="0 0 1024 1024" version="1.1" xmlns="http://www.w3.org/2000/svg" p-id="6285" xmlns:xlink="http://www.w3.org/1999/xlink" width="200" height="200"><path d="M876.8 560A368 368 0 0 1 560 876.8a48 48 0 0 0-96 0 366.72 366.72 0 0 1-260.32-164.16A362.4 362.4 0 0 1 147.2 560a48 48 0 0 0 0-96A368 368 0 0 1 464 147.2a48 48 0 0 0 96 0 362.4 362.4 0 0 1 152.8 56.48A366.72 366.72 0 0 1 876.8 464a48 48 0 0 0 0 96z" fill="#ACD5EA" p-id="6286"></path><path d="M816 456a359.84 359.84 0 0 1-612.32 256A362.4 362.4 0 0 1 147.2 560a48 48 0 0 0 0-96A368 368 0 0 1 464 147.2a48 48 0 0 0 96 0 362.4 362.4 0 0 1 152.8 56.48A358.08 358.08 0 0 1 816 456z" fill="#CEE6F4" p-id="6287"></path><path d="M832 512a48 48 0 0 1 44.8-48A368 368 0 0 0 560 147.2a48 48 0 0 1-96 0A368 368 0 0 0 147.2 464a48 48 0 0 1 0 96A368 368 0 0 0 464 876.8a48 48 0 0 1 96 0A368 368 0 0 0 876.8 560a48 48 0 0 1-44.8-48z" fill="#CEE6F4" p-id="6288"></path><path d="M512 80a432 432 0 1 0 432 432A432 432 0 0 0 512 80z m48 796.8a48 48 0 0 0-96 0A368 368 0 0 1 147.2 560a48 48 0 0 0 0-96A368 368 0 0 1 464 147.2a48 48 0 0 0 96 0A368 368 0 0 1 876.8 464a48 48 0 0 0 0 96A368 368 0 0 1 560 876.8z" fill="#1B45AF" p-id="6289"></path><path d="M464 892.8h-2.08a384 384 0 0 1-225.6-113.6 16 16 0 0 1 23.04-22.4 350.24 350.24 0 0 0 192 101.92 64 64 0 0 1 120.64 0 351.04 351.04 0 0 0 286.4-286.4 64 64 0 0 1 0-120.64 351.04 351.04 0 0 0-286.4-286.4 64 64 0 0 1-120.64 0 351.04 351.04 0 0 0-286.4 286.4 64 64 0 0 1 0 120.64 347.2 347.2 0 0 0 56.48 138.56 16 16 0 1 1-26.24 18.24 379.68 379.68 0 0 1-64-167.2 16 16 0 0 1 3.52-12.32 16 16 0 0 1 11.52-5.6 32 32 0 0 0 0-64 16 16 0 0 1-11.36-5.76 16 16 0 0 1-3.52-12.32A383.04 383.04 0 0 1 462.08 131.36a16 16 0 0 1 12.32 3.52 16 16 0 0 1 5.76 11.36 32 32 0 0 0 64 0 16 16 0 0 1 5.76-11.36 16 16 0 0 1 12.32-3.52 383.04 383.04 0 0 1 330.4 330.72 16 16 0 0 1-3.52 12.32 16 16 0 0 1-11.36 5.76 32 32 0 0 0 0 64 16 16 0 0 1 11.36 5.76 16 16 0 0 1 3.52 12.32 383.04 383.04 0 0 1-330.72 330.4 16 16 0 0 1-12.32-3.52 16 16 0 0 1-5.76-11.36 32 32 0 0 0-64 0 16 16 0 0 1-16 15.04z" fill="#0D182D" p-id="6290"></path><path d="M464 892.8h-2.08a384 384 0 0 1-225.6-113.6 16 16 0 0 1 23.04-22.4 350.24 350.24 0 0 0 192 101.92 64 64 0 0 1 120.64 0 351.04 351.04 0 0 0 286.4-286.4 64 64 0 0 1 0-120.64 351.04 351.04 0 0 0-286.4-286.4 64 64 0 0 1-120.64 0 351.04 351.04 0 0 0-286.4 286.4 64 64 0 0 1 0 120.64 347.2 347.2 0 0 0 56.48 138.56 16 16 0 1 1-26.24 18.24 379.68 379.68 0 0 1-64-167.2 16 16 0 0 1 3.52-12.32 16 16 0 0 1 11.52-5.6 32 32 0 0 0 0-64 16 16 0 0 1-11.36-5.76 16 16 0 0 1-3.52-12.32A383.04 383.04 0 0 1 462.08 131.36a16 16 0 0 1 12.32 3.52 16 16 0 0 1 5.76 11.36 32 32 0 0 0 64 0 16 16 0 0 1 5.76-11.36 16 16 0 0 1 12.32-3.52 383.04 383.04 0 0 1 330.4 330.72 16 16 0 0 1-3.52 12.32 16 16 0 0 1-11.36 5.76 32 32 0 0 0 0 64 16 16 0 0 1 11.36 5.76 16 16 0 0 1 3.52 12.32 383.04 383.04 0 0 1-330.72 330.4 16 16 0 0 1-12.32-3.52 16 16 0 0 1-5.76-11.36 32 32 0 0 0-64 0 16 16 0 0 1-16 15.04z" fill="#0D182D" p-id="6291"></path><path d="M512 768a256 256 0 1 1 241.28-170.56 16 16 0 1 1-30.08-10.88 224.96 224.96 0 1 0-21.92 44.96 16 16 0 1 1 27.2 16.96A254.4 254.4 0 0 1 512 768z" fill="#5EA2CC" p-id="6292"></path><path d="M512 608a96 96 0 1 1 96-96 96 96 0 0 1-96 96z m0-160a64 64 0 1 0 64 64 64 64 0 0 0-64-64z" fill="#0A2872" p-id="6293"></path><path d="M336 528h-144a16 16 0 0 1 0-32h144a16 16 0 0 1 0 32zM832 528h-144a16 16 0 0 1 0-32h144a16 16 0 0 1 0 32zM512 848a16 16 0 0 1-16-16v-144a16 16 0 0 1 32 0v144a16 16 0 0 1-16 16zM512 352a16 16 0 0 1-16-16v-144a16 16 0 0 1 32 0v144a16 16 0 0 1-16 16z" fill="#0D182D" p-id="6294"></path><path d="M512 960a448 448 0 0 1-331.84-748.8 16 16 0 1 1 23.68 21.44A416 416 0 1 0 512 96a409.76 409.76 0 0 0-261.92 93.12 16 16 0 0 1-20.16-24.96A448 448 0 1 1 512 960z m-48-67.2h-2.08a384 384 0 0 1-225.6-113.6 16 16 0 0 1 23.04-22.4 350.24 350.24 0 0 0 192 101.92 64 64 0 0 1 120.64 0 351.04 351.04 0 0 0 286.4-286.4 64 64 0 0 1 0-120.64 351.04 351.04 0 0 0-286.4-286.4 64 64 0 0 1-120.64 0 351.04 351.04 0 0 0-286.4 286.4 64 64 0 0 1 0 120.64 347.2 347.2 0 0 0 56.48 138.56 16 16 0 1 1-26.24 18.24 379.68 379.68 0 0 1-64-167.2 16 16 0 0 1 3.52-12.32 16 16 0 0 1 11.52-5.6 32 32 0 0 0 0-64 16 16 0 0 1-11.36-5.76 16 16 0 0 1-3.52-12.32A383.04 383.04 0 0 1 462.08 131.36a16 16 0 0 1 12.32 3.52 16 16 0 0 1 5.76 11.36 32 32 0 0 0 64 0 16 16 0 0 1 5.76-11.36 16 16 0 0 1 12.32-3.52 383.04 383.04 0 0 1 330.4 330.72 16 16 0 0 1-3.52 12.32 16 16 0 0 1-11.36 5.76 32 32 0 0 0 0 64 16 16 0 0 1 11.36 5.76 16 16 0 0 1 3.52 12.32 383.04 383.04 0 0 1-330.72 330.4 16 16 0 0 1-12.32-3.52 16 16 0 0 1-5.76-11.36 32 32 0 0 0-64 0 16 16 0 0 1-16 15.04z" fill="#0D182D" p-id="6295"></path></svg>