<?xml version="1.0" encoding="utf-8"?>
<!-- Generator: Adobe Illustrator 27.0.0, SVG Export Plug-In . SVG Version: 6.00 Build 0)  -->
<svg version="1.1" id="图层_1" xmlns="http://www.w3.org/2000/svg" xmlns:xlink="http://www.w3.org/1999/xlink" x="0px" y="0px"
	 viewBox="0 0 600 600" style="enable-background:new 0 0 600 600;" xml:space="preserve">
<style type="text/css">
	.st0{fill-rule:evenodd;clip-rule:evenodd;fill:#E83827;}
	.st1{fill-rule:evenodd;clip-rule:evenodd;fill:#2B3F58;}
	.st2{fill-rule:evenodd;clip-rule:evenodd;fill:#2A67B2;}
	.st3{fill-rule:evenodd;clip-rule:evenodd;fill:#4CB67D;}
	.st4{fill-rule:evenodd;clip-rule:evenodd;fill:#467BBF;}
	.st5{fill-rule:evenodd;clip-rule:evenodd;fill:#1DA74B;}
	.st6{fill-rule:evenodd;clip-rule:evenodd;fill:#F9BB00;}
	.st7{fill-rule:evenodd;clip-rule:evenodd;fill:#E83927;}
</style>
<g>
	<path class="st4" d="M569.71,526.18l-13.62-77.45c-0.14-0.74-0.56-1.39-1.18-1.81c-0.62-0.42-1.39-0.58-2.12-0.44l-127.24,22.4
		c-1.51,0.28-2.5,1.72-2.25,3.23l13.63,77.45c2.71,15.29,17.28,25.5,32.58,22.82l77.45-13.69
		C562.21,555.98,572.39,541.43,569.71,526.18z"/>
	<path class="st5" d="M547.31,398.94L485.8,50.44c-2.68-15.28-17.23-25.49-32.51-22.82l-77.45,13.69
		c-7.34,1.26-13.88,5.41-18.15,11.52c-4.27,6.1-5.93,13.66-4.6,20.99l61.44,348.5c0.12,0.74,0.53,1.4,1.13,1.83
		c0.61,0.44,1.36,0.61,2.1,0.49l127.24-22.47c0.74-0.12,1.4-0.53,1.83-1.13C547.26,400.43,547.43,399.67,547.31,398.94z"/>
	<path class="st6" d="M323.38,187.65h-129.2c-1.55,0-2.81,1.26-2.81,2.81v353.91c0,15.51,12.58,28.09,28.09,28.09h78.65
		c15.51,0,28.09-12.57,28.09-28.09V190.46C326.19,188.91,324.93,187.65,323.38,187.65z"/>
	<path class="st4" d="M298.1,33.16h-78.65c-15.51,0-28.09,12.58-28.09,28.09v78.65c0,1.55,1.26,2.81,2.81,2.81h129.2
		c1.55,0,2.81-1.26,2.81-2.81V61.25C326.19,45.74,313.61,33.16,298.1,33.16z"/>
	<path class="st4" d="M136.6,33.16H57.95c-15.51,0-28.09,12.58-28.09,28.09v78.65c0,1.55,1.26,2.81,2.81,2.81h129.2
		c1.55,0,2.81-1.26,2.81-2.81V61.25C164.69,45.74,152.11,33.16,136.6,33.16z"/>
	<path class="st7" d="M161.87,187.65H32.67c-1.55,0-2.81,1.26-2.81,2.81v353.91c0,15.51,12.58,28.09,28.09,28.09h78.65
		c15.51,0,28.09-12.57,28.09-28.09V190.46C164.69,188.91,163.43,187.65,161.87,187.65z"/>
</g>
</svg>
