<svg xmlns="http://www.w3.org/2000/svg" width="128.13" height="128" viewBox="0 0 1025 1024"><path fill="#000000" d="M896.428 1024h-64q-26 0-45-19t-19-45.5t19-45t45-18.5h32q13 0 22.5-9.5t9.5-22.5v-32q0-27 18.5-45.5t45-18.5t45.5 18.5t19 45.5v64q0 53-37.5 90.5t-90.5 37.5m64-768q-27 0-45.5-19t-18.5-45v-32q0-13-9.5-22.5t-22.5-9.5h-32q-26 0-45-18.5t-19-45.5t19-45.5t45-18.5h64q53 0 90.5 37.5t37.5 90.5v64q0 27-18.5 45.5t-45.5 18.5m-128 192q0 80-56 136t-136 56h-64v64q0 27-18.5 45.5t-45 18.5t-45.5-19t-19-45V320q0-27 19-45.5t45-18.5h128q80 0 136 56t56 136m-192-64h-64v128h64q26 0 45-19t19-45.5t-18.5-45t-45.5-18.5m-383.5 384q-26.5 0-45.5-19t-19-45V320q0-27 19-45.5t45-18.5t45 18.5t19 45.5v384q0 27-18.5 45.5t-45 18.5m-64.5-640h-32q-13 0-22.5 9.5t-9.5 22.5v32q0 27-18.5 45.5t-45 18.5t-45.5-19t-19-45v-64q0-53 37.5-90.5t90.5-37.5h64q26 0 45 18.5t19 45t-18.5 45.5t-45.5 19m-127.5 640q26.5 0 45 18.5t18.5 45.5v32q0 13 9.5 22.5t22.5 9.5h32q26 0 45 18.5t19 45t-19 45.5t-45 19h-64q-53 0-90.5-37.5T.428 896v-64q0-27 19-45.5t45.5-18.5"/></svg>