<svg version="1.1" id="Aspose.Diagram_for_Python_via_.NET" xmlns="http://www.w3.org/2000/svg" x="0" y="0" viewBox="0 0 272 272" style="enable-background:new 0 0 272 272" xml:space="preserve"><style>.st0{fill:#fff}.st1{fill-rule:evenodd;clip-rule:evenodd;fill:#ffcd38}</style><g id="Python_via_.NET"><g id="Python"><path class="st0" d="M208.6 239.1c-26.6 31.5-111.2 26-111.2 26H6.3V48.3h219.4v106.2s1 63-17.1 84.6z"/><path class="st1" d="M72.3 191.7c0-21.9 7.7-40.6 23.1-56 15.3-15.4 34-23.1 56-23.1 21.7 0 40.3 7.7 55.9 23.1 15.5 15.4 23.3 34.1 23.3 56 0 21.8-7.8 40.5-23.3 55.9-15.5 15.5-34.1 23.3-55.9 23.3-22 0-40.7-7.8-56-23.3-15.4-15.4-23.1-34.1-23.1-55.9"/><path class="st1" d="M230.5 191.7h-9.3V58.2c0-3.4-1.2-5.7-3.7-6.9-.8-.4-1.8-.7-3-1l-1.4-.2H17.8c-3.5 0-5.8 1.2-6.9 3.6-.7 1.4-1.1 2.9-1.1 4.4v195.3c0 3.4 1.2 5.7 3.6 6.8 1.4.7 2.9 1.1 4.4 1.2h129.6l4.1 9.3H14.9c-2.4 0-4.8-.6-7.2-1.8-4.8-2.4-7.2-6.6-7.2-12.6V55.4c0-2.4.6-4.8 1.8-7.2C4.8 43.4 9 41 14.9 41h201.2l2.2.2c1.8.3 3.5.8 5 1.6 4.8 2.4 7.2 6.6 7.2 12.5v136.4z"/><path d="M70.6 91.8c0 8.2-2.3 14.5-6.9 18.9s-11.1 6.5-19.7 6.5H30.1V67.4h15.4c7.9 0 14.1 2.1 18.5 6.4s6.6 10.3 6.6 18zm-8.6.3c0-11.9-5.6-17.9-16.7-17.9h-7.1v36.2H44c12 0 18-6.1 18-18.3z" style="fill:#ffcd38"/><g id="Shape_1_"><path d="M110.7 204.8c0-5.6.3-11.1-.1-16.6-.4-6 4.5-11.2 11.1-10.9 6.7.3 13.4.1 20.1.1h2.2v-10.5c-.4-.1-.8-.3-1.2-.3-2.8-.2-4.4-1.9-4.4-4.7v-12.4c0-3.6 1.8-5.6 5.3-5.7 4.2-.1 8.4-.1 12.6 0 3.1.1 4.9 1.9 4.9 5 .1 3.8.1 7.6 0 11.4-.2 5.2-.5 5.6-5.5 6.6v10.5h11.7c4.7.1 9.3-.1 14 .4 4.4.5 7.7 4.8 7.7 9.2V205c.8.1 1.4.1 2 .3 2.1.4 3.3 1.9 3.4 4.1 0 4.6.1 9.2.1 13.8 0 3.2-1.4 4.8-4.6 4.9-4.5.1-9 .1-13.5 0-2.8-.1-4.4-1.9-4.4-4.9 0-3.9.2-7.8-.1-11.7-.3-4.3 1.4-6 5.6-6.5v-15.9h-21.7v15.8c5.2 1.5 5.5 2 5.5 7.5v10.5c0 3.7-1.6 5.2-5.3 5.2H144c-3.6 0-5.4-1.9-5.4-5.5v-10.7c0-4.8.9-5.9 5.7-7V189h-21.8v15.8c5 1.2 5.5 1.9 5.5 7.2v10.7c0 3.5-1.7 5.2-5.1 5.2-4.1.1-8.3.1-12.4 0-3.8 0-5.3-1.7-5.3-5.5v-10.7c-.2-4.7.6-5.7 5.5-6.9zm33.8 17.2h10.8v-10.6h-10.8V222zm.1-61.7h10.7v-10.4h-10.7v10.4zm-33.3 51.1v10.5h10.5v-10.5h-10.5zm77.2 0h-10.3v10.5h10.3v-10.5z" style="fill-rule:evenodd;clip-rule:evenodd;fill:#f9f8f6"/><path d="M144.5 222v-10.6h10.8V222h-10.8zm.1-61.7v-10.4h10.7v10.4h-10.7zm-33.3 51.1h10.5v10.5h-10.5v-10.5zm77.2 0v10.5h-10.3v-10.5h10.3z" style="fill-rule:evenodd;clip-rule:evenodd;fill:#ffcc49"/></g></g><g id="NET"><circle cx="216.4" cy="56" r="55" style="fill:#672572"/><g id="XMLID_2_"><path id="XMLID_3_" class="st0" d="M229.9 42.1c.5-.4.8-1 .8-1.8 0-.7-.2-1.2-.6-1.6-.3-.3-.9-.7-1.6-.9-.7-.3-1.1-.5-1.3-.7-.3-.2-.3-.5-.3-.9 0-.3.2-.7.4-.9.3-.3.7-.3 1.1-.3.8 0 1.4.2 2 .6v-1.4c-.5-.3-1.2-.4-1.9-.4-.9 0-1.6.3-2.2.7-.6.5-.9 1.1-.9 1.8s.2 1.2.5 1.5.9.7 1.5.9c.7.3 1.2.6 1.4.8.3.3.3.5.3.9 0 .8-.5 1.2-1.6 1.2-.9 0-1.5-.3-2.2-.9v1.4c.6.3 1.4.5 2.1.5 1.1.3 1.8 0 2.5-.5z"/><path id="XMLID_29_" class="st0" d="M242.8 42.6h1.4v-7.4h2V34h-2v-1.4c0-1.2.5-1.8 1.4-1.8.3 0 .7.1.9.3v-1.3c-.3-.1-.6-.2-1-.2-.8 0-1.4.3-1.9.7-.6.5-.9 1.3-.9 2.2v1.4h-1.3v1.2h1.4v7.5z"/><path id="XMLID_30_" class="st0" d="M198.9 31.8c.3 0 .4-.1.7-.3.2-.2.3-.4.3-.7s-.1-.4-.3-.6-.4-.3-.7-.3-.4.1-.6.3c-.2.2-.3.4-.3.6 0 .3.1.5.3.7s.3.3.6.3z"/><path id="XMLID_31_" class="st0" d="M205.8 42.9c.9 0 1.7-.2 2.4-.6V41c-.7.5-1.4.8-2.1.8-.9 0-1.6-.3-2.1-.9-.5-.6-.8-1.4-.8-2.4s.3-1.9.9-2.5c.5-.6 1.3-.9 2.1-.9s1.4.3 2 .7v-1.4c-.6-.3-1.3-.4-2-.4-1.4 0-2.5.4-3.2 1.3-.9.9-1.2 2-1.2 3.4 0 1.3.3 2.3 1.1 3.1.6.6 1.6 1.1 2.9 1.1z"/><path id="XMLID_34_" class="st0" d="M254.8 34.7h.3c.2 0 .3.2.5.5l.3.7h.5l-.4-.8c-.2-.3-.3-.5-.5-.5.3-.1.4-.2.5-.3.2-.2.2-.3.2-.5 0-.3-.1-.4-.3-.5-.2-.2-.4-.3-.9-.3h-.9v2.9h.4v-1.2h.3zm0-1.4h.3c.3 0 .4.1.5.2.1.1.2.2.2.3 0 .3-.2.5-.6.5h-.4v-1z"/><path id="XMLID_35_" class="st0" d="M248.4 40.3c0 1.7.8 2.6 2.2 2.6.5 0 .9-.1 1.3-.3v-1.2c-.3.2-.5.3-.9.3s-.8-.1-1-.3c-.2-.3-.3-.7-.3-1.2v-4.8h2.1v-1.3h-2.1v-2.6c-.5.2-.9.3-1.4.4V34h-1.4v1.2h1.4l.1 5.1z"/><path id="XMLID_40_" class="st0" d="M255.2 36.7c.7 0 1.2-.3 1.6-.7s.7-.9.7-1.6c0-.7-.3-1.2-.7-1.6-.4-.4-.9-.6-1.6-.6-.7 0-1.2.3-1.6.7-.4.4-.7 1-.7 1.6 0 .7.3 1.2.7 1.6.4.5 1 .6 1.6.6zm-1.3-3.6c.4-.4.9-.6 1.4-.6s1 .2 1.4.6c.4.4.6.9.6 1.4s-.2 1.1-.6 1.4c-.4.4-.9.6-1.4.6s-1-.2-1.4-.6-.6-.9-.6-1.4.1-1.1.6-1.4z"/><path id="XMLID_41_" class="st0" d="M198.2 34h1.4v8.6h-1.4V34z"/><path id="XMLID_44_" class="st0" d="M219.5 42.9c1.3 0 2.4-.4 3.1-1.3.8-.9 1.2-2 1.2-3.3s-.3-2.5-1.1-3.3c-.7-.8-1.7-1.2-3-1.2s-2.4.3-3.1 1.1c-.9.9-1.3 2-1.3 3.5 0 1.3.3 2.4 1.1 3.1.8.9 1.8 1.4 3.1 1.4zm-1.9-7.1c.5-.6 1.2-.9 2-.9.9 0 1.5.3 2 .9.5.6.8 1.4.8 2.6 0 1-.3 1.9-.7 2.5-.5.6-1.2.9-2 .9-.9 0-1.5-.3-2.1-.9-.5-.6-.8-1.4-.8-2.4 0-1.3.2-2.1.8-2.7z"/><path id="XMLID_47_" class="st0" d="M239.2 41.6c.8-.9 1.2-2 1.2-3.3s-.3-2.5-1.1-3.3c-.7-.8-1.7-1.2-3-1.2s-2.4.3-3.1 1.1c-.9.9-1.3 2-1.3 3.5 0 1.3.3 2.4 1.1 3.1.8.9 1.8 1.3 3.1 1.3 1.4.1 2.4-.4 3.1-1.2zm-5.8-3.3c0-1.1.3-2 .9-2.6.5-.6 1.2-.9 2-.9.9 0 1.5.3 2 .9.5.6.8 1.4.8 2.6 0 1-.3 1.9-.7 2.5-.5.6-1.2.9-2 .9s-1.5-.3-2.1-.9c-.7-.6-.9-1.4-.9-2.5z"/><path id="XMLID_48_" class="st0" d="M219.1 63.8h11.4v-3.3h-11.4V49.9h12.3v-3.3h-16.1v31.6h16.8v-3.3h-13V63.8z"/><path id="XMLID_49_" class="st0" d="M235.6 49.9h9.1v28.3h3.7V49.9h9.1v-3.3h-21.9v3.3z"/><path id="XMLID_50_" class="st0" d="M175 73.7c-.7 0-1.3.3-1.7.8-.5.5-.7 1.1-.7 1.8s.3 1.3.7 1.8c.5.5 1 .8 1.7.8s1.3-.3 1.8-.8.8-1.1.8-1.8-.3-1.3-.8-1.8-1-.8-1.8-.8z"/><path id="XMLID_51_" class="st0" d="M212.6 34.3c-.4.3-.8.9-.9 1.4v-1.8h-1.4v8.6h1.4v-4.3c0-1 .3-1.8.7-2.4.3-.5.9-.8 1.4-.8.4 0 .9.1 1 .3v-1.4c-.2-.1-.4-.1-.9-.1-.4 0-.9.2-1.3.5z"/><path id="XMLID_52_" class="st0" d="M184.2 32.2h.1l4.4 10.4h.7l4.5-10.4-.1 10.4h1.5v-12h-1.8l-4.4 9.8-4.3-9.8h-1.9v12h1.4l-.1-10.4z"/><path id="XMLID_53_" class="st0" d="m204.7 73.3-16.9-26.7h-4.9v31.6h3.8V51.1l17.2 27.1h4.5V46.6h-3.7v26.7z"/></g></g></g></svg>