<svg xmlns="http://www.w3.org/2000/svg" xml:space="preserve" style="enable-background:new 0 0 486 180" viewBox="0 0 486 180"><style>.st2{fill:#fff}</style><g id="Layer_1"><path d="m381.9 152.1 7.5-16.7c1.5-3.3 2-4 3.5-4.4v-1.1H385v1.1c2.6.6 2.9 1.9 1.7 4.7l-3 7.3-3.8-8.5c-.8-1.9-.7-3 2.1-3.3V130h-10.5v1.2c1.2.3 1.7.8 2.8 3.1l6.7 14.4-1.1 2.4c-.6 1.4-1.2 2.4-1.9 3-.5-1.6-1.4-2.5-2.8-2.5s-2.7 1-2.7 2.8c0 1.9 1.5 3.3 3.3 3.3 2.5 0 4.1-1.3 6.1-5.6m-10.7-5-.6-1.3c-1.1.5-2 .7-2.9.7-1.9 0-2.4-1-2.4-2.3v-12.1h5.1v-2.3h-5.1v-3.7h-.7l-7.2 4.7v1.3h2.9v13.1c0 2.6 1.5 4 4.4 4 2.3.1 4.5-.7 6.5-2.1m-15.3.5c-2.5-.4-2.8-.9-2.9-3.1v-15.3h-2l-5.9 3.9v.9h2.8v10.6c0 2.2-.4 2.7-2.8 3.1v1.2h10.7l.1-1.3zm-5.7-21.4c1.7 0 3-1.4 3-3.1 0-1.5-1.2-2.8-2.7-2.8-1.8 0-3.1 1.4-3.1 3.1 0 1.6 1.2 2.8 2.8 2.8m-7 16.8c0-3.7-3.1-4.9-6-5.8-2.8-.9-4.8-1.5-4.8-3.6 0-1.1.8-2.2 2.5-2.2 2 0 3.8 1.2 6 3.7l1-.5-1.5-5h-.6l-.7.6c-1.1-.5-2.4-.8-3.8-.8-4.2 0-7 2.5-7 6.1 0 3.7 3.1 4.8 6 5.8 2.8 1 4.8 1.5 4.8 3.6 0 1.3-1 2.3-2.9 2.3-2.7 0-4.7-1.8-7.2-4.9l-1.1.4 1.6 6.2h.7l1.2-.8c1.3.6 2.8 1 4.4 1 4.1.2 7.4-2.2 7.4-6.1m-20.8 4.7c-2.6-.4-3-1-3-3.4V136c.8-1.4 1.6-2.5 2.4-3.2 0 1.6 1.1 2.6 2.4 2.6 1.4 0 2.7-1.1 2.7-3.2 0-1.8-1-2.8-2.8-2.8-2 0-3.5 1.6-4.9 4v-4h-1.8l-5.8 3.8v.9h2.8v10.7c0 2.2-.4 2.8-2.6 3.1v1.2h10.6v-1.4zm-25.1-10.9c0-3.2 1.4-5.2 4-5.2 1.8 0 3 1.3 3.5 3.9l-7.4 2.6c-.1-.4-.1-.8-.1-1.3m12.5 8.6-1.1-.8c-1.1 1.2-2.7 2.1-4.6 2.1-3.7 0-5.8-2.8-6.5-6.4l12-4c-.2-4.2-3.4-6.6-7.3-6.6-5.6 0-9.6 4.5-9.6 10.1 0 5.5 3.5 9.7 9.8 9.7 3.7-.1 6-1.8 7.3-4.1m-21-9.9c1.5-3.3 2-4 3.5-4.4V130h-7.9v1.1c2.6.6 2.9 1.9 1.7 4.7l-3 7.3-3.8-8.5c-.8-1.9-.7-3 2.1-3.3v-1.2h-10.5v1.2c1.2.3 1.8.8 2.8 3.1l6.9 14.9h2.1l6.1-13.8zm-18.3 12.3c-2.5-.4-2.8-.9-2.9-3.1v-15.3h-2l-5.9 3.9v.9h2.8v10.6c0 2.2-.4 2.7-2.8 3.1v1.2h10.7l.1-1.3zm-5.7-21.4c1.7 0 3-1.4 3-3.1 0-1.5-1.2-2.8-2.7-2.8-1.8 0-3.1 1.4-3.1 3.1 0 1.5 1.2 2.8 2.8 2.8m-20.2 21.4c-2.3-.3-2.6-.9-2.7-3.1v-9.3c2-1.8 3.6-2.7 5.1-2.7 2 0 2.5 1 2.5 2.8v9.1c0 2.2-.4 2.8-2.6 3.1v1.2h10.3v-1.2c-2.3-.3-2.6-.9-2.7-3.1V135c0-3.2-1.4-5.5-5.4-5.5-2.5 0-4.9 1.5-7.3 3.6v-3.8H240l-5.8 3.8v.9h2.8v10.7c0 2.2-.4 2.8-2.6 3.1v1.2h10.3l-.1-1.2zm-43.7-23.4v12c0 7.8 4.1 13.2 14.3 13.2 10.2 0 14.3-5.4 14.2-13v-9.7c0-4.7 1.3-5.9 3.6-6.5v-1.2h-9.7v1.2c2.3.6 3.6 1.8 3.6 6.5v9.7c0 6.8-3.5 9.9-10.3 9.9-6.7 0-10.3-3.1-10.3-9.9v-12.2c0-3 .9-3.6 3.4-3.9v-1.3h-12.2v1.3c2.6.3 3.4.8 3.4 3.9M432.7 101.5c-2.3-.3-2.6-.9-2.7-3.1v-9.3c2-1.8 3.6-2.7 5.1-2.7 2 0 2.5 1 2.5 2.8v9.1c0 2.2-.4 2.8-2.6 3.1v1.2h10.3v-1.2c-2.3-.3-2.6-.9-2.7-3.1v-9.6c0-3.2-1.4-5.5-5.4-5.5-2.5 0-4.9 1.5-7.3 3.6V83h-1.8l-5.8 3.8v.9h2.8v10.7c0 2.2-.4 2.8-2.6 3.1v1.2h10.3l-.1-1.2zm-16 0c-2.6-.4-3-1-3-3.4v-8.3c.8-1.4 1.6-2.5 2.4-3.2 0 1.6 1.1 2.6 2.4 2.6 1.4 0 2.7-1.1 2.7-3.2 0-1.8-1-2.8-2.8-2.8-2 0-3.5 1.6-4.9 4v-4h-1.8l-5.8 3.8v.9h2.8v10.7c0 2.2-.4 2.8-2.6 3.1v1.2h10.6v-1.4zm-25.1-10.8c0-3.2 1.4-5.2 4-5.2 1.8 0 3 1.3 3.5 3.9l-7.4 2.6c-.1-.5-.1-.9-.1-1.3m12.6 8.5-1.1-.8c-1.1 1.2-2.7 2.1-4.6 2.1-3.7 0-5.8-2.8-6.5-6.4l12-4c-.2-4.2-3.4-6.6-7.3-6.6-5.6 0-9.6 4.5-9.6 10.1 0 5.5 3.5 9.7 9.8 9.7 3.6-.1 5.9-1.8 7.3-4.1m-18.5 1.8-.6-1.3c-1.1.5-2 .7-2.9.7-1.9 0-2.4-1-2.4-2.3V86h5.1v-2.3h-5.1V80h-.7l-7.2 4.7V86h2.9v13.1c0 2.6 1.5 4 4.4 4 2.3.1 4.5-.7 6.5-2.1m-15.2-4.1c0-3.7-3.1-4.9-6-5.8-2.8-.9-4.8-1.5-4.8-3.6 0-1.1.8-2.2 2.5-2.2 2 0 3.8 1.2 6 3.7l1-.5-1.5-5h-.6l-.7.6c-1.1-.5-2.4-.8-3.8-.8-4.2 0-7 2.5-7 6.1 0 3.7 3.1 4.8 6 5.8 2.8 1 4.8 1.5 4.8 3.6 0 1.3-1 2.3-2.9 2.3-2.7 0-4.7-1.8-7.2-4.9l-1.1.4 1.6 6.2h.7l1.2-.8c1.3.6 2.8 1 4.4 1 4.1.2 7.4-2.2 7.4-6.1m-30.8.9c0-2 .9-3 5.6-4.3v5.8c-1.1.9-2.1 1.3-3.1 1.3-1.6 0-2.5-.9-2.5-2.8m8.8 5.3c1.7 0 3.6-.8 4.8-1.7l-.4-1.1c-2 .4-2.7.1-2.7-1.2V88.4c0-3.2-1.4-4.9-5.9-4.9-5.1 0-8.8 2.7-8.8 5.3 0 1.2.8 2.3 2.3 2.3 1.6 0 2.4-1.1 2.7-2.2.2-1.2-.2-2.2-.8-2.7 1-.5 2-.7 3-.7 1.7 0 2.6.6 2.6 2.2v4c-7.2 1.8-10.5 3.3-10.4 7.2 0 2.9 1.9 4.5 4.9 4.5 1.9 0 4-.8 5.9-2.3.1 1.3 1.1 2 2.8 2m-28.4-12.3c0-3.2 1.4-5.2 4-5.2 1.8 0 3 1.3 3.5 3.9l-7.4 2.6c-.1-.4-.1-.9-.1-1.3m12.5 8.5-1.1-.8c-1.1 1.2-2.7 2.1-4.6 2.1-3.7 0-5.8-2.8-6.5-6.4l12-4c-.2-4.2-3.4-6.6-7.3-6.6-5.6 0-9.6 4.5-9.6 10.1 0 5.5 3.5 9.7 9.8 9.7 3.7-.1 6-1.8 7.3-4.1m-31.9 2.4c-2.3-.3-2.6-.9-2.7-3.1v-9.3c1.9-1.8 3.4-2.7 5.1-2.7 2 0 2.5 1 2.5 2.8v9.1c0 2.2-.4 2.8-2.6 3.1v1.2h10.3v-1.2c-2.3-.3-2.6-.9-2.7-3.1v-9.6c0-3.2-1.4-5.5-5.4-5.5-2.4 0-4.8 1.5-7.2 3.5V71h-1.5l-6.4 4.2v.9h2.9v22.4c0 2.2-.4 2.8-2.6 3.1v1.2h10.3v-1.1zm-11.5-.5-.6-1.3c-1.1.5-2 .7-2.9.7-1.9 0-2.4-1-2.4-2.3V86.2h5.1v-2.3h-5.1v-3.7h-.7l-7.2 4.7v1.3h2.9v13.1c0 2.6 1.5 4 4.4 4 2.4.1 4.6-.7 6.5-2.1m-19.6.6c-2.6-.4-3-1-3-3.4v-8.3c.8-1.4 1.6-2.5 2.4-3.2 0 1.6 1.1 2.6 2.4 2.6s2.7-1.1 2.7-3.2c0-1.8-1-2.8-2.8-2.8-2 0-3.5 1.6-4.9 4v-4h-1.8l-5.8 3.8v.9h2.8v10.7c0 2.2-.4 2.8-2.6 3.1v1.2h10.6v-1.4zm-29-10.3c0-3.6 1.6-5.9 4.8-5.9 4.2 0 5.5 5.2 5.5 10 0 3.6-1.6 5.9-4.8 5.9-4.2 0-5.5-5.2-5.5-10m15.4 1.8c0-5.2-3.5-9.7-10-9.6-6.5 0-10.4 4.7-10.4 10.2 0 5.2 3.5 9.7 10 9.6 6.5-.1 10.4-4.8 10.4-10.2m-26.2-12.5c0-4.7 1.3-5.9 3.6-6.5v-1.2h-9.7v1.2c2.3.6 3.6 1.8 3.6 6.5v14.1l-20.5-20.6c-1.1-1.1-1.6-1.2-2.3-1.2h-7.6v1.2c1.6.2 2.6.8 4.5 2.6.6.6 1.2 1.2 1.2 2.4v16.1c0 4.7-1.3 5.9-3.6 6.5v1.2h9.7v-1.2c-2.3-.6-3.6-1.8-3.6-6.5V80.3l23 23.1h1.6l.1-22.6z" class="st2"></path><path d="M172.5 63.3c0-19.6 6.6-26 19.8-31V29h-43.2v3.2c13.2 5 19.8 11.4 19.8 31v57.5L77.4 33.4c-4.2-3.9-5.3-4.3-8-4.3H35v3.2c7.6.8 12.1 2.9 23 13.5l4.2 4v65.6c0 19.6-6.6 26-19.8 31v3.2h43.2v-3.2c-13.2-5-19.8-11.4-19.8-31V52.8l103.5 97.5h3.2v-87z" style="fill:#d4202d"></path></g></svg>