<svg width="173" height="28" viewBox="0 0 173 28" xmlns="http://www.w3.org/2000/svg" xmlns:xlink="http://www.w3.org/1999/xlink"><title>brandcrowd-logo</title><defs><path id="a" d="M0 0h34v28H0z"/><path d="M0 18.962S13.89 17.085 15.102 2.98c0 0 8.94 3.915 17.88-2.95C33.315 13.487 8.787 27.651 0 18.962" id="c"/><path d="M24.32 14.793c-5.24 4.203-11.943 7.002-17.407 6.831.414-.127 5.957-1.92 9.584-7.596 0 0 3.838 3.098 7.824.765z" id="d"/><path d="M.253 13.013S9.678 11.739 10.5 2.167c0 0 6.066 2.657 12.132-2.002C22.86 9.297 6.216 18.909.252 13.013" id="e"/><path d="M16.755 10.184c-3.556 2.852-8.104 4.751-11.812 4.635.282-.087 4.043-1.303 6.504-5.155 0 0 2.604 2.103 5.309.52z" id="f"/><path d="M.104 9.097s6.674-.901 7.256-7.68c0 0 4.296 1.882 8.591-1.417C16.112 6.467 4.326 13.273.104 9.097" id="g"/><path d="M11.79 7.094c-2.518 2.02-5.739 3.365-8.365 3.283.198-.061 2.862-.922 4.605-3.65 0 0 1.845 1.488 3.76.367z" id="h"/></defs><g fill="none" fill-rule="evenodd"><path d="M47.369 17.997c0-1.72-1.178-2.58-3.532-2.58h-1.57v4.978c.49.087.948.13 1.374.13 2.485 0 3.728-.843 3.728-2.528m-.59-7.74c0-.928-.326-1.573-.98-1.934-.475-.24-1.202-.36-2.183-.36-.409 0-.858.042-1.349.128v4.54h1.496c2.012 0 3.017-.79 3.017-2.373m3.752 7.97c0 3.44-2.37 5.16-7.112 5.16-1.292 0-2.698-.155-4.219-.464V5.692c1.7-.344 3.123-.516 4.268-.516 4.3 0 6.45 1.66 6.45 4.979a3.96 3.96 0 0 1-.699 2.27 4.2 4.2 0 0 1-1.803 1.521v.052c.965.241 1.725.744 2.282 1.51.555.764.833 1.672.833 2.72m10.252-8.022l-.883 2.657a5.16 5.16 0 0 0-1.618-.258 7.08 7.08 0 0 0-2.208.336c.016.12.025.206.025.258v9.905h-2.944v-9.828c0-.395-.073-1.04-.22-1.935 2.158-.945 4.022-1.419 5.592-1.419.817 0 1.57.095 2.256.284m7.873 10.241a3.745 3.745 0 0 1-.05-.49v-3.173c-.245.258-.768.482-1.57.67-.996.242-1.626.422-1.887.542-.606.293-.908.706-.908 1.239 0 1.049.76 1.573 2.281 1.573.703 0 1.414-.12 2.134-.361m3.066 1.935c-2.094.67-3.835 1.006-5.224 1.006-1.44 0-2.649-.276-3.63-.826-1.243-.705-1.864-1.737-1.864-3.095 0-1.496.654-2.588 1.962-3.276.523-.275 1.75-.636 3.679-1.083 1.308-.31 1.962-.749 1.962-1.316 0-.791-.687-1.187-2.06-1.187-1.129 0-2.265.258-3.41.774l-1.005-2.348a11.016 11.016 0 0 1 4.831-1.109c1.39 0 2.486.327 3.287.98.866.723 1.3 1.798 1.3 3.225v6.63c0 .326.057.868.172 1.625m13.857.722h-2.944v-8.1c0-1.582-.81-2.373-2.428-2.373-.687 0-1.513.19-2.477.568.033.24.049.421.049.541v9.364h-2.943V13.018c0-.378-.057-.98-.172-1.806 2.29-.86 4.145-1.29 5.567-1.29 3.565 0 5.347 1.531 5.347 4.592v8.59zm10.815-2.631a4.28 4.28 0 0 1-.049-.516v-6.733c-.507-.412-1.177-.619-2.011-.619-1.047 0-1.84.396-2.38 1.187-.457.705-.686 1.642-.686 2.811 0 1.222.278 2.193.834 2.915.604.792 1.471 1.187 2.6 1.187.735 0 1.3-.077 1.692-.232m3.041 1.96c-1.668.637-3.254.955-4.758.955-1.946 0-3.548-.65-4.807-1.948-1.26-1.298-1.888-2.962-1.888-4.991 0-1.806.474-3.32 1.422-4.54 1.03-1.324 2.428-1.987 4.194-1.987.997 0 1.913.233 2.747.697V4.17h2.943v16.535c0 .344.049.92.147 1.728" fill="#FFF"/><path d="M115.034 22.201c-1.504.774-3 1.161-4.488 1.161-2.535 0-4.599-.843-6.193-2.528-1.594-1.685-2.391-3.86-2.391-6.526 0-2.648.74-4.828 2.22-6.54 1.479-1.71 3.47-2.566 5.971-2.566 1.537 0 3.147.396 4.832 1.187l-1.006 2.63c-1.455-.67-2.747-1.005-3.875-1.005-1.537 0-2.747.61-3.63 1.831-.818 1.1-1.226 2.485-1.226 4.153 0 1.96.474 3.526 1.422 4.695 1.014 1.238 2.437 1.857 4.268 1.857 1.112 0 2.215-.275 3.31-.825l.786 2.476zm10.252-11.995l-.883 2.657a5.161 5.161 0 0 0-1.619-.258c-.785 0-1.52.112-2.207.336.016.12.024.206.024.258v9.905h-2.943v-9.828c0-.395-.074-1.04-.22-1.935 2.158-.945 4.022-1.419 5.591-1.419.817 0 1.57.095 2.257.284m9.54 6.474c0-1.117-.213-2.037-.638-2.76-.507-.876-1.259-1.315-2.256-1.315-.998 0-1.75.43-2.256 1.29-.426.722-.638 1.65-.638 2.786 0 1.135.212 2.055.638 2.76.506.86 1.258 1.29 2.256 1.29.997 0 1.75-.43 2.256-1.29.425-.705.638-1.625.638-2.76m3.262-.026c0 1.96-.564 3.573-1.692 4.837-1.129 1.264-2.616 1.896-4.464 1.896-1.848 0-3.344-.645-4.488-1.935-1.112-1.238-1.668-2.837-1.668-4.798 0-1.96.564-3.573 1.692-4.837 1.129-1.263 2.616-1.896 4.464-1.896 1.848 0 3.335.633 4.464 1.896 1.128 1.264 1.692 2.876 1.692 4.837m21.975-6.449L155.5 23.31c-.998 0-1.782-.18-2.354-.541-.622-.396-1.096-1.067-1.423-2.012l-2.158-6.295-2.87 8.848c-.997 0-1.774-.172-2.33-.516-.621-.395-1.103-1.066-1.447-2.012l-3.801-10.576h3.335l2.894 9.08h.05l.22-.696 2.674-8.384h2.673l3.09 9.08h.05l2.746-9.08h3.213zm9.442 10.267a4.28 4.28 0 0 1-.049-.516v-6.733c-.507-.412-1.177-.619-2.011-.619-1.046 0-1.84.396-2.38 1.187-.457.705-.686 1.642-.686 2.811 0 1.222.278 2.193.834 2.915.605.792 1.472 1.187 2.6 1.187.736 0 1.3-.077 1.692-.232m3.042 1.96c-1.668.637-3.255.955-4.759.955-1.946 0-3.548-.65-4.807-1.948-1.259-1.298-1.888-2.962-1.888-4.991 0-1.806.474-3.32 1.422-4.54 1.03-1.324 2.428-1.987 4.194-1.987.997 0 1.913.233 2.747.697V4.17h2.943v16.535c0 .344.05.92.148 1.728" fill="#F21B3F"/><mask id="b" fill="#fff"><use xlink:href="#a"/></mask><g mask="url(#b)"><g transform="translate(0 6.444)"><use fill="#F21B3F" xlink:href="#c"/><use fill="#BF000C" xlink:href="#d"/></g></g><g mask="url(#b)"><g transform="translate(5.323 3.222)"><use fill="#7D7C7A" xlink:href="#e"/><use fill="#5D5549" xlink:href="#f"/></g></g><g mask="url(#b)"><g transform="translate(8.516)"><use fill="#8DA1B2" xlink:href="#g"/><use fill="#66798A" xlink:href="#h"/></g></g></g></svg>