<svg width="310" height="261" xmlns="http://www.w3.org/2000/svg">
 <g>
  <title>Layer 1</title>
  <line fill="none" stroke="#000" x1="183.39999" y1="211" x2="184.39999" y2="211" id="svg_8" stroke-linejoin="undefined" stroke-linecap="undefined"/>
  <path fill="none" stroke="#000" d="m846.15304,304.89482l2.00001,-0.38196l2.00001,0.38196l-0.76393,0.61803l-2.47215,0l-0.76394,-0.61803z" id="svg_15"/>
  <ellipse fill="#884D58" stroke="#000" cx="308.39999" cy="334" id="svg_17"/>
  <path id="svg_19" d="m154.4,257.99998c-83.42542,0 -151.00001,-56.83425 -151.00001,-126.99999c0,-70.16574 67.57459,-126.99999 151.00001,-126.99999c83.42542,0 151.00001,56.83425 151.00001,126.99999c0,70.16574 -67.57459,126.99999 -151.00001,126.99999z" opacity="undefined" stroke="#000" fill="#5B9BA2"/>
  <path fill="#FABA6F" stroke="#000" opacity="undefined" d="m34.39998,55l240.00002,0l0,154l-240.00002,0l0,-154z" id="svg_21"/>
  <rect fill="#ffffff" stroke="#000" x="587.39999" y="481" width="1" height="0" id="svg_22"/>
  <path fill="#000000" stroke="#000" d="m90.90796,92.76371l0,0c11.9664,0 21.6671,-8.43214 21.6671,-18.83371l86.66581,0l0,0c0,10.40157 9.7007,18.83371 21.66709,18.83371l0,75.33258l0,0c-11.9664,0 -21.66709,8.43213 -21.66709,18.8337l-86.66581,0c0,-10.40158 -9.7007,-18.8337 -21.6671,-18.8337l0,-75.33258z" id="svg_23"/>
  <text fill="#A0D58A" stroke="#000" x="132.39999" y="241.95506" id="svg_30" stroke-width="0" font-size="24" font-family="Noto Sans JP" text-anchor="start" xml:space="preserve" transform="matrix(1, 0, 0, 1.06348, 0, -16.7154)">ZY</text>
  <text fill="#000000" stroke="#000" x="137.39999" y="39" id="svg_33" stroke-width="0" font-size="24" font-family="Noto Sans JP" text-anchor="start" xml:space="preserve">ZY</text>
  <text fill="#C97A86" stroke="#000" x="137.39999" y="73" id="svg_34" stroke-width="0" font-size="24" font-family="Noto Sans JP" text-anchor="start" xml:space="preserve">ZY</text>
  <path fill="#C97A86" stroke="#000" d="m114.68797,127.28481l7.44833,-21.32208l19.49988,-13.17792l24.10355,0l19.5,13.17792l7.44821,21.32208l-7.44821,21.32208l-19.5,13.17792l-24.10355,0l-19.49988,-13.17792l-7.44833,-21.32208z" id="svg_36"/>
  <text fill="#000000" stroke="#000" x="140.39999" y="133" id="svg_37" stroke-width="0" font-size="24" font-family="Noto Sans JP" text-anchor="start" xml:space="preserve">ZY</text>
 </g>

</svg>