<svg width="800" height="600" xmlns="http://www.w3.org/2000/svg">
 <g>
  <title>Layer 1</title>
  <line fill="none" stroke="#000" x1="363.39999" y1="321" x2="364.39999" y2="321" id="svg_8" stroke-linejoin="undefined" stroke-linecap="undefined"/>
  <path fill="none" stroke="#000" d="m846.15304,304.89482l2.00001,-0.38196l2.00001,0.38196l-0.76393,0.61803l-2.47215,0l-0.76394,-0.61803z" id="svg_15"/>
  <ellipse fill="#884D58" stroke="#000" cx="308.39999" cy="334" id="svg_17"/>
  <ellipse fill="#5B9BA2" stroke="#000" cx="381.39999" cy="285" id="svg_19" rx="191" ry="172"/>
  <path fill="#FABA6F" stroke="#000" opacity="undefined" d="m240.39999,170.99999l286.00001,0l0,230.00001l-286.00001,0l0,-230.00001z" id="svg_21"/>
  <rect fill="#ffffff" stroke="#000" x="587.39999" y="481" width="1" height="0" id="svg_22"/>
  <path fill="#000000" stroke="#000" d="m296.90797,237.93052l0,0c15.00403,0 27.16721,-11.64083 27.16721,-26.00052l108.66559,0l0,0c0,14.35969 12.16318,26.00052 27.1672,26.00052l0,103.99896l0,0c-15.00403,0 -27.1672,11.64082 -27.1672,26.00051l-108.66559,0c0,-14.3597 -12.16318,-26.00051 -27.16721,-26.00051l0,-103.99896z" id="svg_23"/>
  <path fill="none" stroke="#000" id="svg_27" d="m664.40002,419c-1,0 -2,0 -2,2l-1,0l0,1l-1,0"/>
  <text fill="#A0D58A" stroke="#000" x="211.39999" y="257" id="svg_30" stroke-width="0" font-size="24" font-family="Noto Sans JP" text-anchor="start" xml:space="preserve" transform="matrix(1, 0, 0, 1.06348, 0, -16.7154)">ZY</text>
  <text fill="#000000" stroke="#000" x="480.39999" y="244" id="svg_33" stroke-width="0" font-size="24" font-family="Noto Sans JP" text-anchor="start" xml:space="preserve">ZY</text>
  <text fill="#C97A86" stroke="#000" x="357.39999" y="244" id="svg_34" stroke-width="0" font-size="24" font-family="Noto Sans JP" text-anchor="start" xml:space="preserve">ZY</text>
  <path fill="#C97A86" stroke="#000" d="m341.68797,296.78481l7.25735,-29.6655l18.99988,-18.3345l23.48551,0l19,18.3345l7.25723,29.6655l-7.25723,29.6655l-19,18.3345l-23.48551,0l-18.99988,-18.3345l-7.25735,-29.6655z" id="svg_36"/>
  <text fill="#000000" stroke="#000" x="365.39999" y="303" id="svg_37" stroke-width="0" font-size="24" font-family="Noto Sans JP" text-anchor="start" xml:space="preserve">ZY</text>
  <g>
   <g>
    <title>Layer 1</title>
    <line fill="none" stroke="#000" x1="363.39999" y1="321" x2="364.39999" y2="321" id="svg_14" stroke-linejoin="undefined" stroke-linecap="undefined"/>
    <path fill="none" stroke="#000" d="m846.15304,304.89482l2.00001,-0.38196l2.00001,0.38196l-0.76393,0.61803l-2.47215,0l-0.76394,-0.61803z" id="svg_13"/>
    <ellipse fill="#884D58" stroke="#000" cx="308.39999" cy="334" id="svg_12"/>
    <ellipse fill="#5B9BA2" stroke="#000" cx="381.39999" cy="285" id="svg_11" rx="191" ry="172"/>
    <path fill="#FABA6F" stroke="#000" opacity="undefined" d="m240.39999,170.99999l286.00001,0l0,230.00001l-286.00001,0l0,-230.00001z" id="svg_10"/>
    <rect fill="#ffffff" stroke="#000" x="587.39999" y="481" width="1" id="svg_9"/>
    <path fill="#000000" stroke="#000" d="m296.90797,237.93052l0,0c15.00403,0 27.16721,-11.64083 27.16721,-26.00052l108.66559,0l0,0c0,14.35969 12.16318,26.00052 27.1672,26.00052l0,103.99896l0,0c-15.00403,0 -27.1672,11.64082 -27.1672,26.00051l-108.66559,0c0,-14.3597 -12.16318,-26.00051 -27.16721,-26.00051l0,-103.99896z" id="svg_7"/>
    <path fill="none" stroke="#000" id="svg_6" d="m664.40002,419c-1,0 -2,0 -2,2l-1,0l0,1l-1,0"/>
    <text fill="#A0D58A" stroke="#000" x="211.39999" y="257" id="svg_5" stroke-width="0" font-size="24" font-family="Noto Sans JP" text-anchor="start" xml:space="preserve" transform="matrix(1, 0, 0, 1.06348, 0, -16.7154)">ZY</text>
    <text fill="#000000" stroke="#000" x="480.39999" y="244" id="svg_4" stroke-width="0" font-size="24" font-family="Noto Sans JP" text-anchor="start" xml:space="preserve">ZY</text>
    <text fill="#C97A86" stroke="#000" x="357.39999" y="244" id="svg_3" stroke-width="0" font-size="24" font-family="Noto Sans JP" text-anchor="start" xml:space="preserve">ZY</text>
    <path fill="#C97A86" stroke="#000" d="m341.68797,296.78481l7.25735,-29.6655l18.99988,-18.3345l23.48551,0l19,18.3345l7.25723,29.6655l-7.25723,29.6655l-19,18.3345l-23.48551,0l-18.99988,-18.3345l-7.25735,-29.6655z" id="svg_2"/>
    <text fill="#000000" stroke="#000" x="365.39999" y="303" id="svg_1" stroke-width="0" font-size="24" font-family="Noto Sans JP" text-anchor="start" xml:space="preserve">ZY</text>
   </g>
  </g>
  <g>
   <rect width="320" height="60" class="border-rect"/>
  </g>
  <rect id="svg_16" height="61" width="233" y="495.5" x="278" stroke="#000" fill="#fff"/>
 </g>

</svg>