<?xml version="1.0" standalone="no"?><!DOCTYPE svg PUBLIC "-//W3C//DTD SVG 1.1//EN" "http://www.w3.org/Graphics/SVG/1.1/DTD/svg11.dtd"><svg height="1024" node-id="1" sillyvg="true" template-height="1024" template-width="1101" version="1.1" viewBox="0 0 1101 1024" width="1101" xmlns="http://www.w3.org/2000/svg" xmlns:xlink="http://www.w3.org/1999/xlink"><defs node-id="30"></defs><path d="M 0.00 0.00 L 1100.60 0.00 L 1100.60 1024.00 L 0.00 1024.00 Z" fill="#ffffff" fill-rule="nonzero" node-id="32" stroke="none" target-height="1024" target-width="1100.6" target-x="0" target-y="0"></path><path d="M 335.50 375.80 L 346.90 371.80 L 349.80 371.30 L 352.60 371.40 L 354.30 371.90 L 356.10 372.90 L 357.90 374.40 L 356.80 377.30 L 355.40 379.40 L 353.80 380.90 L 352.00 382.10 L 350.00 382.70 L 347.80 382.90 L 343.50 382.10 L 341.30 381.00 L 337.30 377.90 L 335.50 375.80 Z" fill="#fdfdfd" fill-rule="nonzero" node-id="34" stroke="none" target-height="11.600006" target-width="22.399994" target-x="335.5" target-y="371.3"></path><path d="M 912.30 509.80 L 915.20 509.60 L 917.20 509.80 L 918.50 510.30 L 919.40 511.20 L 920.00 512.20 L 920.10 513.40 L 919.60 515.30 L 918.40 517.20 L 916.80 518.80 L 914.90 520.00 L 913.60 520.30 L 912.20 520.30 L 910.90 519.80 L 909.80 519.00 L 908.70 517.50 L 907.70 515.00 L 912.30 509.80 Z" fill="#fdfdfd" fill-rule="nonzero" node-id="36" stroke="none" target-height="10.699982" target-width="12.399963" target-x="907.7" target-y="509.6"></path><path d="M 912.50 605.80 L 913.10 603.90 L 914.10 602.30 L 915.50 600.90 L 919.00 598.90 L 921.10 598.30 L 923.30 598.00 L 927.40 598.30 L 929.40 598.90 L 931.00 599.90 L 932.40 601.20 L 931.80 602.90 L 930.80 604.50 L 929.30 605.90 L 925.70 608.00 L 923.60 608.70 L 921.40 609.10 L 917.30 608.80 L 915.40 608.20 L 913.90 607.20 L 912.50 605.80 Z" fill="#fdfdfd" fill-rule="nonzero" node-id="40" stroke="none" target-height="11.099976" target-width="19.900024" target-x="912.5" target-y="598"></path><path d="M 133.60 165.80 L 135.30 159.20 L 137.50 152.80 L 140.00 146.60 L 142.90 140.50 L 146.10 134.70 L 150.60 127.60 L 155.60 120.90 L 161.00 114.60 L 166.90 108.60 L 173.20 103.00 L 179.80 97.80 L 186.70 93.00 L 193.90 88.70 L 201.50 84.80 L 209.10 81.50 L 217.00 78.60 L 225.10 76.20 L 233.40 74.30 L 241.60 73.10 L 250.00 72.30 L 265.40 72.00 L 272.30 72.40 L 279.20 73.30 L 286.00 74.70 L 292.60 76.70 L 299.00 79.30 L 305.10 82.30 L 310.90 85.90 L 316.40 90.00 L 320.30 93.50 L 327.20 101.20 L 330.20 105.60 L 344.90 101.50 L 374.60 94.30 L 389.60 91.20 L 404.60 88.70 L 419.70 86.50 L 431.30 95.00 L 418.80 95.70 L 406.50 96.90 L 394.20 98.60 L 382.00 100.70 L 369.80 103.20 L 357.70 106.20 L 345.70 109.50 L 333.90 113.30 L 322.20 117.40 L 310.60 121.90 L 301.40 126.70 L 292.40 131.80 L 283.70 137.30 L 275.20 143.10 L 266.90 149.40 L 259.00 155.90 L 251.30 162.90 L 243.90 170.10 L 236.90 177.70 L 230.20 185.50 L 223.90 193.70 L 218.00 202.20 L 212.50 210.90 L 207.40 219.90 L 202.80 229.10 L 198.70 238.70 L 193.20 253.30 L 188.20 268.10 L 183.60 283.10 L 175.60 313.30 L 172.20 328.60 L 167.50 351.60 L 163.40 374.70 L 159.90 407.10 L 159.00 425.50 L 159.70 440.00 L 160.70 447.10 L 162.20 454.10 L 164.30 460.90 L 166.20 465.90 L 168.50 470.80 L 171.30 475.50 L 178.70 486.00 L 183.40 491.40 L 188.60 496.50 L 194.10 501.20 L 199.80 505.60 L 205.90 509.60 L 216.70 516.20 L 227.70 522.20 L 238.80 527.90 L 250.10 533.10 L 265.50 539.60 L 281.00 545.50 L 296.80 550.90 L 320.70 558.40 L 417.40 585.70 L 441.20 593.20 L 450.00 588.00 L 459.10 583.00 L 468.40 578.50 L 477.90 574.20 L 487.60 570.40 L 497.40 567.00 L 507.40 564.00 L 517.50 561.50 L 527.60 559.50 L 537.90 558.10 L 548.10 557.20 L 558.40 556.90 L 566.70 557.00 L 574.90 557.60 L 583.10 558.60 L 591.30 560.10 L 599.50 561.90 L 611.60 565.30 L 617.60 566.40 L 623.60 567.10 L 631.60 567.50 L 639.70 567.50 L 647.90 567.00 L 660.00 565.60 L 672.20 563.70 L 749.30 548.50 L 759.00 546.40 L 768.60 543.90 L 777.90 540.90 L 783.90 538.40 L 789.60 535.60 L 795.20 532.40 L 802.90 526.60 L 806.50 523.30 L 814.30 514.50 L 818.30 509.30 L 822.00 503.80 L 825.20 498.10 L 828.20 492.20 L 830.70 486.10 L 832.80 479.90 L 834.50 473.60 L 835.90 467.10 L 836.70 460.60 L 837.10 454.00 L 837.10 447.40 L 836.50 433.10 L 835.40 418.90 L 833.80 404.80 L 829.50 376.70 L 822.70 341.70 L 807.10 266.40 L 803.80 254.10 L 799.90 241.90 L 796.60 232.80 L 788.90 215.20 L 779.80 198.30 L 774.80 190.20 L 769.40 182.30 L 763.60 174.60 L 757.50 167.20 L 751.10 160.20 L 744.30 153.40 L 737.10 146.90 L 731.20 142.10 L 718.70 133.60 L 712.20 129.90 L 703.20 125.30 L 694.00 121.30 L 684.50 117.70 L 665.30 111.70 L 637.80 104.80 L 619.90 101.10 L 602.00 97.90 L 583.90 95.30 L 565.80 93.30 L 547.60 91.80 L 529.40 90.90 L 511.20 90.40 L 492.90 90.50 L 474.70 91.00 L 456.50 91.90 L 438.30 93.30 L 426.70 84.90 L 448.40 83.30 L 470.20 82.30 L 492.00 81.90 L 524.70 82.30 L 557.30 84.20 L 573.60 85.70 L 589.80 87.60 L 605.90 90.00 L 622.00 92.70 L 638.00 96.00 L 653.90 99.60 L 669.80 103.80 L 685.50 108.40 L 690.50 103.70 L 695.70 99.50 L 701.20 95.50 L 706.90 91.90 L 712.90 88.70 L 719.00 85.90 L 725.30 83.50 L 731.70 81.50 L 738.30 80.10 L 744.90 79.10 L 751.70 78.70 L 758.50 78.80 L 768.40 79.50 L 778.20 80.70 L 788.20 82.50 L 795.60 84.20 L 810.00 88.70 L 817.00 91.40 L 823.90 94.60 L 830.50 98.10 L 836.70 102.10 L 842.80 106.40 L 848.50 111.20 L 853.80 116.40 L 858.70 122.10 L 867.10 133.90 L 870.40 139.80 L 873.50 145.90 L 876.10 152.20 L 878.40 158.70 L 880.30 165.30 L 881.80 171.90 L 882.90 178.70 L 883.60 185.60 L 883.90 192.40 L 883.70 199.20 L 883.20 206.00 L 882.20 212.80 L 880.80 219.40 L 879.00 225.90 L 876.70 232.30 L 874.00 238.60 L 870.80 244.50 L 867.20 250.30 L 863.00 255.90 L 859.10 260.20 L 854.80 264.20 L 850.30 267.70 L 843.10 272.40 L 835.50 276.70 L 819.90 284.50 L 823.00 302.20 L 826.60 319.90 L 838.10 372.90 L 843.20 402.40 L 845.80 426.30 L 846.40 438.20 L 846.50 450.30 L 845.90 462.40 L 845.40 469.50 L 844.20 476.40 L 842.40 483.20 L 840.10 489.80 L 837.30 496.20 L 834.10 502.40 L 826.50 514.30 L 822.20 519.90 L 817.60 525.30 L 807.80 535.30 L 814.20 539.40 L 830.00 529.30 L 839.70 539.80 L 840.40 536.20 L 842.80 530.00 L 844.40 527.30 L 846.90 523.90 L 849.80 520.90 L 853.10 518.20 L 860.50 513.90 L 864.60 512.10 L 871.00 510.00 L 877.50 508.40 L 884.00 507.10 L 894.20 506.00 L 910.40 502.40 L 914.30 501.90 L 917.00 501.90 L 921.90 502.70 L 924.20 503.70 L 926.50 505.20 L 928.80 507.30 L 942.50 501.70 L 957.20 510.30 L 960.50 512.90 L 963.40 515.90 L 966.80 523.80 L 969.70 531.90 L 976.80 556.70 L 979.50 564.80 L 974.20 577.20 L 971.10 583.20 L 967.60 588.90 L 965.00 592.40 L 962.00 595.70 L 958.60 598.70 L 937.50 591.90 L 945.40 603.30 L 941.60 606.30 L 937.80 608.70 L 933.80 610.80 L 929.70 612.30 L 925.50 613.50 L 921.30 614.20 L 917.00 614.50 L 912.60 614.40 L 908.30 613.80 L 904.00 612.70 L 899.60 611.20 L 895.30 609.20 L 887.10 619.20 L 884.90 621.50 L 880.60 624.40 L 876.40 625.60 L 860.30 627.20 L 852.20 627.50 L 844.00 627.30 L 836.00 626.60 L 827.90 625.50 L 820.00 623.90 L 812.20 621.70 L 804.60 618.90 L 804.70 665.40 L 805.50 691.20 L 806.30 701.50 L 809.30 725.80 L 815.80 768.20 L 817.50 782.40 L 818.70 796.50 L 819.00 806.00 L 818.90 815.40 L 818.20 824.80 L 816.20 838.70 L 814.50 845.70 L 812.50 852.70 L 810.60 857.90 L 805.80 867.60 L 803.00 872.20 L 798.80 878.00 L 794.20 883.50 L 789.20 888.70 L 778.30 898.10 L 766.40 906.40 L 760.20 910.20 L 744.30 918.90 L 734.40 923.90 L 724.40 928.50 L 714.10 932.70 L 703.80 936.60 L 693.30 940.00 L 682.70 943.00 L 671.90 945.60 L 661.10 947.80 L 650.20 949.50 L 639.30 950.80 L 628.30 951.70 L 617.20 952.00 L 606.20 951.80 L 595.20 951.20 L 584.20 950.00 L 576.50 948.50 L 569.00 946.60 L 561.60 944.20 L 550.80 940.20 L 540.20 935.50 L 498.30 915.00 L 487.70 910.20 L 474.40 905.10 L 471.80 904.60 L 469.30 904.50 L 465.60 904.90 L 461.80 905.70 L 436.90 914.90 L 426.60 918.30 L 416.10 921.20 L 405.50 923.70 L 384.10 927.80 L 319.50 937.90 L 304.90 938.00 L 290.20 937.50 L 275.50 936.40 L 264.50 935.10 L 253.60 933.30 L 242.80 931.10 L 232.20 928.40 L 221.60 925.30 L 211.30 921.60 L 201.20 917.30 L 191.20 912.50 L 184.00 908.10 L 177.20 903.40 L 170.70 898.20 L 164.60 892.50 L 158.90 886.50 L 153.50 880.10 L 148.60 873.50 L 144.00 866.50 L 139.80 859.20 L 136.10 851.80 L 132.70 844.10 L 129.80 836.30 L 127.30 828.30 L 125.30 820.20 L 123.70 812.00 L 122.60 803.80 L 121.60 792.50 L 121.10 781.40 L 121.00 770.20 L 121.30 759.10 L 122.10 748.00 L 123.60 734.20 L 125.70 720.40 L 128.30 706.80 L 131.50 693.20 L 135.20 679.70 L 139.40 666.40 L 144.10 653.30 L 149.30 640.30 L 154.90 627.40 L 160.90 614.80 L 167.30 602.40 L 174.00 590.30 L 170.00 576.10 L 166.40 561.90 L 163.20 547.60 L 160.40 533.20 L 157.30 514.00 L 154.80 494.60 L 152.90 475.10 L 151.60 455.60 L 150.90 436.10 L 150.70 416.50 L 151.80 401.60 L 153.30 386.70 L 155.20 371.80 L 157.50 357.00 L 160.20 342.20 L 164.10 323.90 L 168.60 305.70 L 173.70 287.70 L 179.30 269.80 L 174.20 266.50 L 164.80 259.00 L 160.40 254.80 L 155.00 248.80 L 150.00 242.40 L 145.60 235.70 L 141.70 228.60 L 138.40 221.20 L 135.70 213.70 L 134.00 207.80 L 131.90 196.00 L 131.40 190.00 L 131.30 183.90 L 131.60 177.90 L 132.40 171.90 L 133.60 165.80 Z M 912.30 509.80 L 907.70 515.00 L 908.70 517.50 L 909.80 519.00 L 910.90 519.80 L 912.20 520.30 L 913.60 520.30 L 914.90 520.00 L 916.80 518.80 L 918.40 517.20 L 919.60 515.30 L 920.10 513.40 L 920.00 512.20 L 919.40 511.20 L 918.50 510.30 L 917.20 509.80 L 915.20 509.60 L 912.30 509.80 Z M 873.70 512.10 L 876.80 529.10 L 881.20 528.80 L 883.20 528.10 L 885.90 526.60 L 888.40 524.50 L 895.50 517.60 L 897.90 515.60 L 889.90 514.00 L 881.80 512.90 L 873.70 512.10 Z M 910.70 527.60 L 902.70 521.00 L 897.70 524.80 L 892.50 528.20 L 885.10 531.90 L 881.20 533.20 L 877.20 534.20 L 873.10 534.60 L 868.80 534.40 L 865.30 519.20 L 855.10 524.40 L 850.10 533.20 L 868.50 533.70 L 857.50 538.00 L 824.10 549.10 L 813.80 542.20 L 799.00 543.70 L 800.90 570.40 L 801.80 579.20 L 803.10 588.10 L 805.00 596.70 L 806.60 602.30 L 808.70 607.90 L 811.20 613.30 L 816.40 615.70 L 821.50 617.50 L 826.80 618.70 L 837.60 620.10 L 851.40 620.00 L 876.20 617.90 L 880.90 605.80 L 890.00 601.70 L 908.50 594.50 L 922.70 589.80 L 937.00 585.50 L 965.80 577.70 L 966.90 571.60 L 967.50 565.30 L 967.50 558.70 L 967.00 552.20 L 966.00 545.80 L 964.40 539.40 L 960.90 530.20 L 956.10 521.80 L 953.30 517.90 L 950.10 514.30 L 946.50 511.10 L 942.60 508.10 L 926.50 517.70 L 910.70 527.60 Z M 449.20 599.40 L 459.20 598.00 L 469.20 596.00 L 508.70 585.30 L 518.60 582.90 L 528.60 581.10 L 541.90 579.70 L 548.70 579.60 L 555.40 579.90 L 562.20 580.90 L 574.10 583.60 L 578.70 585.20 L 583.00 587.30 L 591.00 592.50 L 594.70 595.70 L 599.80 600.80 L 604.60 606.40 L 609.10 612.20 L 621.80 630.10 L 620.60 613.80 L 619.40 605.70 L 617.70 597.70 L 616.20 592.50 L 612.20 582.30 L 610.30 579.60 L 608.20 577.40 L 605.80 575.40 L 600.40 572.50 L 592.80 570.00 L 578.90 567.20 L 570.40 566.30 L 561.90 565.90 L 553.40 566.00 L 544.90 566.40 L 528.00 568.50 L 511.40 572.00 L 500.40 575.20 L 489.70 579.00 L 479.20 583.30 L 468.90 588.20 L 458.90 593.60 L 449.20 599.40 Z M 733.80 595.60 L 733.40 591.00 L 730.70 603.80 L 745.20 598.10 L 759.80 592.80 L 774.60 588.00 L 789.60 583.80 L 791.80 576.90 L 762.60 585.50 L 733.80 595.60 Z M 365.20 579.30 L 372.10 585.80 L 378.80 592.70 L 398.00 613.80 L 404.70 620.70 L 411.60 627.10 L 419.00 633.20 L 424.00 636.50 L 429.10 639.30 L 434.40 641.60 L 445.30 644.90 L 459.60 647.70 L 477.00 650.50 L 491.20 653.70 L 502.00 657.80 L 505.90 659.60 L 509.30 661.80 L 512.50 664.40 L 515.30 667.30 L 517.80 670.50 L 522.10 677.70 L 525.20 685.40 L 526.80 691.50 L 527.90 697.50 L 527.10 702.80 L 525.80 707.80 L 524.10 712.70 L 522.00 717.40 L 519.40 721.90 L 516.50 726.20 L 513.20 730.20 L 509.50 734.10 L 501.50 740.80 L 492.50 746.30 L 482.90 750.40 L 472.90 753.00 L 464.40 753.80 L 454.00 753.10 L 435.20 750.30 L 428.90 749.80 L 422.60 749.70 L 414.00 750.60 L 396.90 751.40 L 388.40 751.10 L 377.10 750.20 L 365.90 748.80 L 354.70 746.80 L 343.60 744.30 L 332.50 741.40 L 321.60 738.10 L 299.90 730.50 L 289.30 726.30 L 273.40 719.60 L 251.70 709.70 L 245.80 706.30 L 240.10 702.70 L 234.60 698.70 L 227.60 692.90 L 220.90 686.70 L 214.60 680.20 L 205.50 669.90 L 197.00 659.30 L 198.10 699.50 L 199.90 721.80 L 202.60 739.40 L 204.50 748.20 L 206.70 756.80 L 213.20 777.40 L 217.50 789.20 L 222.20 800.90 L 227.40 812.50 L 233.00 823.80 L 239.10 834.80 L 244.10 842.90 L 254.90 858.40 L 260.70 865.70 L 266.90 872.90 L 273.40 879.70 L 280.30 886.20 L 287.50 892.40 L 293.10 896.50 L 298.80 900.10 L 304.70 903.10 L 310.80 905.60 L 317.10 907.70 L 323.40 909.30 L 329.90 910.40 L 336.50 911.20 L 349.80 911.40 L 356.50 911.00 L 363.20 910.20 L 372.10 908.70 L 380.90 906.70 L 389.60 904.20 L 398.10 901.20 L 406.30 898.00 L 423.10 890.40 L 431.80 886.00 L 440.30 881.10 L 452.70 873.40 L 497.20 843.50 L 514.00 833.80 L 522.70 829.50 L 531.60 825.70 L 540.90 822.30 L 550.10 819.50 L 559.30 817.30 L 568.70 815.40 L 606.50 809.20 L 615.90 807.30 L 627.00 804.20 L 637.80 799.70 L 648.00 793.90 L 652.70 790.50 L 657.10 786.80 L 661.20 782.70 L 664.90 778.30 L 668.20 773.60 L 671.00 768.40 L 669.70 765.40 L 668.10 762.90 L 663.90 758.60 L 658.60 755.20 L 645.20 748.60 L 641.00 746.20 L 635.90 742.30 L 631.30 737.40 L 629.40 734.80 L 626.60 729.30 L 625.50 725.40 L 624.80 721.40 L 624.70 717.30 L 625.50 709.00 L 628.10 698.50 L 630.30 692.40 L 635.00 680.80 L 610.70 687.50 L 602.50 689.50 L 594.20 691.00 L 585.90 691.90 L 580.40 692.00 L 574.80 691.80 L 569.20 691.00 L 564.00 687.00 L 558.90 680.60 L 556.30 676.40 L 549.10 663.10 L 546.50 658.90 L 562.90 652.30 L 612.40 633.70 L 610.50 628.30 L 608.20 623.10 L 605.50 618.30 L 602.30 613.60 L 598.80 609.30 L 594.90 605.30 L 590.80 601.70 L 586.30 598.30 L 581.50 595.40 L 576.60 592.80 L 571.50 590.70 L 566.10 589.00 L 560.70 587.80 L 555.20 587.00 L 549.50 586.80 L 532.00 587.30 L 526.30 588.10 L 517.70 589.90 L 509.10 592.20 L 483.80 599.80 L 475.30 601.90 L 463.90 603.70 L 458.20 604.10 L 452.40 604.00 L 446.60 603.30 L 440.70 602.00 L 390.50 586.40 L 365.20 579.30 Z M 600.80 657.60 L 592.20 660.30 L 587.80 661.40 L 583.40 661.90 L 577.50 661.50 L 574.50 660.70 L 580.00 664.40 L 575.20 665.80 L 570.70 667.70 L 566.50 670.00 L 562.60 672.80 L 558.90 676.00 L 576.60 670.80 L 611.60 659.40 L 637.60 650.20 L 689.50 631.10 L 732.90 615.80 L 784.10 599.80 L 787.90 598.00 L 791.30 595.90 L 793.40 594.10 L 795.10 591.90 L 796.70 589.30 L 763.40 598.80 L 747.00 604.00 L 722.40 612.30 L 698.00 621.10 L 600.80 657.60 Z M 912.50 605.80 L 913.90 607.20 L 915.40 608.20 L 917.30 608.80 L 921.40 609.10 L 923.60 608.70 L 925.70 608.00 L 929.30 605.90 L 930.80 604.50 L 931.80 602.90 L 932.40 601.20 L 931.00 599.90 L 929.40 598.90 L 927.40 598.30 L 923.30 598.00 L 921.10 598.30 L 919.00 598.90 L 915.50 600.90 L 914.10 602.30 L 913.10 603.90 L 912.50 605.80 Z M 585.10 648.90 L 589.60 651.40 L 598.90 651.00 L 615.40 645.40 L 680.70 620.40 L 697.20 614.60 L 719.40 607.60 L 730.70 604.60 L 721.40 599.00 L 653.40 624.40 L 585.10 648.90 Z M 563.40 679.50 L 570.30 682.80 L 577.30 684.50 L 582.10 685.00 L 586.90 685.00 L 591.80 684.60 L 599.10 683.40 L 620.60 678.10 L 642.50 671.40 L 664.10 664.20 L 685.60 656.50 L 749.90 632.80 L 771.40 625.10 L 793.00 617.90 L 795.40 603.40 L 779.70 607.90 L 748.70 617.80 L 725.70 625.90 L 656.80 651.10 L 633.80 659.10 L 610.60 666.70 L 595.00 671.40 L 579.30 675.60 L 563.40 679.50 Z M 559.20 663.30 L 578.00 659.90 L 581.10 658.80 L 583.70 657.40 L 586.00 655.70 L 587.90 653.70 L 589.60 651.40 L 582.30 651.70 L 578.50 652.50 L 574.80 653.60 L 567.80 656.60 L 564.50 658.60 L 559.20 663.30 Z M 629.00 722.40 L 631.10 726.20 L 633.50 729.60 L 639.00 735.30 L 645.40 740.00 L 666.70 751.70 L 671.80 754.90 L 676.60 758.50 L 678.10 761.40 L 679.00 764.10 L 679.30 766.80 L 679.30 769.50 L 677.90 774.70 L 676.00 778.50 L 673.50 782.10 L 670.50 785.40 L 667.40 788.50 L 660.90 793.90 L 655.00 798.20 L 648.90 801.90 L 642.60 805.10 L 629.40 810.20 L 622.60 812.20 L 612.30 814.70 L 559.50 823.90 L 545.10 827.80 L 531.50 833.00 L 522.70 837.20 L 514.00 841.80 L 505.60 846.80 L 493.20 854.80 L 457.10 880.40 L 449.00 885.90 L 440.60 890.90 L 432.00 895.70 L 418.90 902.20 L 405.50 908.20 L 378.30 919.70 L 388.70 918.50 L 398.90 916.90 L 409.00 914.80 L 419.00 912.20 L 428.90 909.20 L 438.70 905.80 L 448.30 902.00 L 457.80 897.80 L 467.00 893.20 L 476.10 888.20 L 484.90 882.90 L 493.60 877.20 L 522.90 857.20 L 533.10 851.00 L 540.00 847.30 L 547.10 844.00 L 554.50 841.10 L 572.40 835.50 L 595.30 829.90 L 622.80 823.80 L 645.50 817.80 L 663.20 811.60 L 676.50 805.00 L 684.80 799.70 L 692.20 793.20 L 695.40 789.60 L 698.30 785.50 L 701.10 779.30 L 702.10 775.80 L 702.60 772.20 L 702.80 768.70 L 702.50 765.30 L 701.70 761.90 L 700.50 758.80 L 698.70 756.10 L 697.00 754.30 L 695.10 752.80 L 692.70 751.50 L 679.30 746.70 L 658.60 738.20 L 648.50 733.50 L 638.60 728.20 L 629.00 722.40 Z" fill="#1e1c1d" fill-rule="nonzero" node-id="42" stroke="none" target-height="880" target-width="858.5" target-x="121" target-y="72"></path><path d="M 226.70 389.90 L 229.90 382.50 L 233.60 375.50 L 237.60 368.70 L 242.10 362.20 L 246.90 355.90 L 252.10 349.90 L 257.50 344.30 L 263.40 338.90 L 269.50 333.80 L 275.80 329.10 L 282.40 324.70 L 289.20 320.60 L 303.50 313.50 L 318.30 307.90 L 326.00 305.60 L 333.70 303.80 L 341.50 302.30 L 349.40 301.30 L 357.30 300.70 L 365.20 300.50 L 373.10 300.70 L 381.00 301.40 L 387.90 303.10 L 391.10 304.50 L 397.10 308.30 L 402.30 313.30 L 406.30 319.10 L 407.70 322.40 L 408.80 325.70 L 409.50 329.30 L 410.20 335.90 L 410.70 349.30 L 410.30 356.20 L 409.60 363.00 L 407.00 376.30 L 405.20 382.90 L 402.90 389.30 L 400.20 395.40 L 397.10 401.40 L 393.60 407.10 L 389.60 412.50 L 385.30 417.60 L 380.40 422.30 L 375.10 426.80 L 356.90 431.50 L 319.80 438.50 L 295.90 439.30 L 271.90 439.70 L 259.90 439.40 L 248.00 438.60 L 243.80 437.50 L 240.00 436.00 L 236.70 433.90 L 233.60 431.30 L 231.00 428.40 L 228.70 425.10 L 226.80 421.60 L 225.40 417.80 L 224.30 413.90 L 223.70 409.80 L 223.40 405.70 L 223.60 401.60 L 224.20 397.50 L 225.20 393.60 L 226.70 389.90 Z M 335.50 375.80 L 337.30 377.90 L 341.30 381.00 L 345.70 382.70 L 347.80 382.90 L 350.00 382.70 L 352.00 382.10 L 353.80 380.90 L 355.40 379.40 L 356.80 377.30 L 357.90 374.40 L 356.10 372.90 L 354.30 371.90 L 352.60 371.40 L 349.80 371.30 L 346.90 371.80 L 335.50 375.80 Z" fill="#1e1c1d" fill-rule="nonzero" node-id="44" stroke="none" target-height="139.20001" target-width="187.30002" target-x="223.4" target-y="300.5"></path><path d="M 607.90 317.50 L 613.40 314.90 L 619.00 312.70 L 624.70 310.90 L 630.50 309.50 L 638.40 308.20 L 646.30 307.60 L 654.40 307.50 L 662.40 307.90 L 670.40 308.80 L 678.40 310.20 L 686.30 312.00 L 701.50 316.60 L 711.30 321.00 L 721.10 326.00 L 733.70 333.70 L 739.70 338.00 L 745.50 342.60 L 750.90 347.50 L 755.90 352.70 L 760.60 358.30 L 764.70 364.20 L 768.30 370.40 L 770.70 375.20 L 772.60 380.30 L 774.30 385.60 L 775.50 391.10 L 776.20 394.80 L 776.50 402.20 L 776.10 405.90 L 774.90 410.60 L 773.30 415.20 L 771.00 419.50 L 768.30 423.50 L 765.10 427.20 L 761.40 430.40 L 758.40 432.50 L 751.90 435.90 L 748.30 437.10 L 734.60 438.60 L 720.90 439.60 L 707.10 440.00 L 696.70 439.80 L 686.40 439.30 L 676.10 438.30 L 665.90 437.00 L 655.70 435.20 L 645.60 432.90 L 635.70 430.20 L 625.80 426.90 L 621.00 423.80 L 616.40 420.30 L 612.30 416.40 L 608.40 412.30 L 604.90 407.80 L 601.70 403.10 L 598.90 398.10 L 596.50 392.90 L 594.40 387.60 L 592.70 382.10 L 591.40 376.50 L 589.60 366.10 L 588.80 356.00 L 589.00 350.90 L 589.60 345.90 L 590.60 340.90 L 592.10 336.20 L 594.10 331.70 L 596.70 327.50 L 598.90 324.70 L 601.60 322.00 L 604.50 319.70 L 607.90 317.50 Z M 633.40 368.40 L 635.20 374.80 L 637.70 381.10 L 640.80 387.10 L 651.00 380.40 L 651.60 377.90 L 651.50 374.50 L 650.00 372.10 L 646.70 370.40 L 644.10 369.80 L 633.40 368.40 Z" fill="#1e1c1d" fill-rule="nonzero" node-id="46" stroke="none" target-height="132.5" target-width="187.70001" target-x="588.8" target-y="307.5"></path><path d="M 468.90 390.40 L 474.00 387.70 L 479.40 385.60 L 485.10 383.90 L 491.00 382.80 L 496.90 382.20 L 503.10 382.10 L 509.20 382.40 L 515.20 383.20 L 521.10 384.30 L 527.00 385.90 L 532.50 387.80 L 537.80 390.00 L 537.40 393.10 L 536.70 395.90 L 534.10 400.70 L 530.40 405.00 L 520.30 413.50 L 515.20 418.50 L 512.10 423.10 L 511.00 425.70 L 510.40 428.50 L 510.20 431.70 L 510.70 435.60 L 511.80 439.20 L 513.60 442.70 L 515.80 445.90 L 518.40 448.80 L 521.40 451.40 L 524.80 453.70 L 528.30 455.50 L 532.10 457.00 L 536.00 457.90 L 539.90 458.40 L 543.80 458.30 L 549.50 457.10 L 552.20 456.00 L 557.00 453.10 L 560.30 449.90 L 562.10 446.90 L 563.60 443.70 L 568.20 430.00 L 577.20 436.60 L 572.50 446.20 L 569.60 450.90 L 566.40 455.30 L 564.10 458.00 L 558.60 462.40 L 555.60 464.10 L 552.20 465.40 L 548.50 466.30 L 544.10 467.10 L 539.80 467.30 L 535.70 467.00 L 531.70 466.10 L 527.80 464.80 L 524.00 463.00 L 516.90 458.50 L 508.80 451.50 L 504.50 447.00 L 499.10 451.90 L 493.20 456.60 L 489.00 459.50 L 480.20 464.10 L 475.60 465.90 L 470.90 467.20 L 466.10 467.90 L 462.50 468.10 L 455.10 467.40 L 447.30 465.10 L 443.20 463.30 L 439.40 460.90 L 436.00 458.00 L 433.90 455.90 L 430.80 451.20 L 429.70 448.70 L 429.10 446.00 L 428.90 443.30 L 429.20 440.60 L 430.10 437.80 L 431.60 434.80 L 441.60 450.50 L 443.60 452.90 L 448.10 456.80 L 450.60 458.20 L 453.50 459.20 L 461.00 460.20 L 465.00 460.10 L 468.80 459.50 L 472.50 458.40 L 476.00 457.00 L 482.50 453.00 L 485.40 450.50 L 489.00 446.80 L 492.10 442.60 L 494.70 438.10 L 496.90 433.30 L 498.40 428.30 L 499.40 423.20 L 495.90 420.40 L 480.10 409.60 L 474.50 404.30 L 471.10 399.40 L 470.00 396.70 L 469.20 393.70 L 468.90 390.40 Z" fill="#1e1c1d" fill-rule="nonzero" node-id="48" stroke="none" target-height="86" target-width="148.30002" target-x="428.9" target-y="382.1"></path><path d="M 310.90 856.40 L 307.40 854.90 L 304.80 853.40 L 303.00 851.70 L 301.60 849.60 L 300.80 847.60 L 300.60 845.40 L 300.80 843.10 L 301.50 840.90 L 303.90 836.40 L 307.60 832.50 L 309.80 830.80 L 314.50 828.30 L 317.10 827.50 L 322.10 827.20 L 324.50 827.70 L 326.80 828.70 L 329.10 830.30 L 329.60 832.40 L 329.50 836.30 L 328.60 839.00 L 322.30 850.00 L 321.10 852.70 L 312.10 846.10 L 322.30 832.10 L 307.40 839.30 L 310.90 856.40 Z" fill="#1e1c1d" fill-rule="nonzero" node-id="50" stroke="none" target-height="29.200012" target-width="29" target-x="300.6" target-y="827.2"></path><path d="M 407.50 853.50 L 408.10 849.30 L 410.60 844.70 L 421.60 832.80 L 422.60 834.80 L 428.80 843.10 L 429.80 845.20 L 430.00 848.30 L 428.90 851.90 L 428.10 853.70 L 426.80 855.30 L 424.50 857.40 L 421.80 859.00 L 419.80 859.80 L 415.80 860.40 L 412.10 859.70 L 410.60 858.80 L 409.30 857.60 L 408.30 855.80 L 407.50 853.50 Z M 417.40 845.30 L 420.20 845.70 L 422.80 846.80 L 423.30 847.50 L 423.40 848.30 L 423.10 849.10 L 422.10 850.30 L 420.60 851.30 L 418.90 852.00 L 416.50 851.90 L 415.60 850.50 L 415.70 849.40 L 417.40 845.30 Z" fill="#1e1c1d" fill-rule="nonzero" node-id="52" stroke="none" target-height="27.600037" target-width="22.5" target-x="407.5" target-y="832.8"></path><path d="M 351.30 858.40 L 350.40 878.50 L 363.10 866.40 L 367.60 862.60 L 365.20 871.30 L 363.50 875.40 L 361.40 879.20 L 358.90 882.90 L 355.90 886.30 L 341.60 874.60 L 351.30 858.40 Z" fill="#1e1c1d" fill-rule="nonzero" node-id="54" stroke="none" target-height="27.899963" target-width="26" target-x="341.6" target-y="858.4"></path><path d="M 633.40 368.40 L 644.10 369.80 L 646.70 370.40 L 650.00 372.10 L 651.50 374.50 L 651.80 376.00 L 651.60 377.90 L 651.00 380.40 L 640.80 387.10 L 637.70 381.10 L 635.20 374.80 L 633.40 368.40 Z" fill="#9c9ea7" fill-rule="nonzero" node-id="56" stroke="none" target-height="18.700012" target-width="18.399963" target-x="633.4" target-y="368.4"></path><path d="M 174.40 480.20 L 171.30 475.50 L 168.50 470.80 L 166.20 465.90 L 164.30 460.90 L 162.20 454.10 L 160.70 447.10 L 159.70 440.00 L 159.00 425.50 L 159.20 418.20 L 159.90 407.10 L 163.40 374.70 L 163.10 382.10 L 163.20 389.30 L 163.80 396.40 L 164.80 403.30 L 166.60 412.60 L 169.00 421.70 L 171.90 430.70 L 176.90 444.10 L 182.50 457.30 L 200.50 496.60 L 205.90 509.60 L 199.80 505.60 L 194.10 501.20 L 188.60 496.50 L 183.40 491.40 L 178.70 486.00 L 174.40 480.20 Z" fill="#9c9ea7" fill-rule="nonzero" node-id="58" stroke="none" target-height="134.9" target-width="46.899994" target-x="159" target-y="374.7"></path><path d="M 873.70 512.10 L 881.80 512.90 L 889.90 514.00 L 897.90 515.60 L 895.50 517.60 L 888.40 524.50 L 885.90 526.60 L 883.20 528.10 L 881.20 528.80 L 876.80 529.10 L 873.70 512.10 Z" fill="#9c9ea7" fill-rule="nonzero" node-id="60" stroke="none" target-height="17" target-width="24.200012" target-x="873.7" target-y="512.1"></path><path d="M 733.80 595.60 L 762.60 585.50 L 791.80 576.90 L 789.60 583.80 L 774.60 588.00 L 759.80 592.80 L 745.20 598.10 L 730.70 603.80 L 733.40 591.00 L 733.80 595.60 Z" fill="#9c9ea7" fill-rule="nonzero" node-id="62" stroke="none" target-height="26.899963" target-width="61.099976" target-x="730.7" target-y="576.9"></path><path d="M 559.20 663.30 L 561.70 660.90 L 564.50 658.60 L 567.80 656.60 L 574.80 653.60 L 582.30 651.70 L 589.60 651.40 L 587.90 653.70 L 586.00 655.70 L 583.70 657.40 L 581.10 658.80 L 578.00 659.90 L 574.50 660.70 L 559.20 663.30 Z" fill="#9c9ea7" fill-rule="nonzero" node-id="64" stroke="none" target-height="11.899963" target-width="30.399963" target-x="559.2" target-y="651.4"></path><path d="M 319.80 438.50 L 356.90 431.50 L 375.10 426.80 L 372.10 432.20 L 368.60 437.20 L 364.80 441.80 L 360.60 446.10 L 356.00 449.90 L 351.10 453.40 L 346.00 456.40 L 340.50 459.10 L 334.90 461.40 L 329.20 463.20 L 323.30 464.60 L 317.30 465.60 L 311.20 466.20 L 305.20 466.40 L 299.10 466.10 L 293.10 465.40 L 287.10 464.30 L 281.30 462.80 L 275.60 460.80 L 270.10 458.30 L 264.80 455.40 L 259.80 452.10 L 255.10 448.30 L 250.60 444.00 L 276.90 444.40 L 294.30 444.00 L 302.90 443.00 L 308.60 441.90 L 314.20 440.40 L 319.80 438.50 Z" fill="#ffadbc" fill-rule="nonzero" node-id="66" stroke="none" target-height="39.600006" target-width="124.5" target-x="250.6" target-y="426.8"></path><path d="M 625.80 426.90 L 635.70 430.20 L 645.60 432.90 L 655.70 435.20 L 665.90 437.00 L 676.10 438.30 L 686.40 439.30 L 696.70 439.80 L 707.10 440.00 L 720.90 439.60 L 734.60 438.60 L 748.30 437.10 L 746.20 441.60 L 743.90 445.70 L 741.20 449.30 L 738.10 452.60 L 734.80 455.50 L 731.10 458.10 L 727.30 460.40 L 723.20 462.30 L 717.40 464.30 L 711.50 465.70 L 705.40 466.70 L 699.20 467.00 L 693.00 466.90 L 686.90 466.30 L 681.90 466.40 L 677.10 466.10 L 672.30 465.40 L 667.60 464.30 L 658.60 460.90 L 650.20 456.20 L 645.10 452.40 L 640.30 448.20 L 635.90 443.40 L 632.10 438.30 L 628.70 432.80 L 625.80 426.90 Z" fill="#ffadbc" fill-rule="nonzero" node-id="68" stroke="none" target-height="40.100006" target-width="122.5" target-x="625.8" target-y="426.9"></path><path d="M 910.70 527.60 L 926.50 517.70 L 942.60 508.10 L 946.50 511.10 L 950.10 514.30 L 953.30 517.90 L 956.10 521.80 L 960.90 530.20 L 964.40 539.40 L 966.00 545.80 L 967.00 552.20 L 967.50 558.70 L 967.50 565.30 L 966.90 571.60 L 965.80 577.70 L 937.00 585.50 L 922.70 589.80 L 908.50 594.50 L 890.00 601.70 L 880.90 605.80 L 876.20 617.90 L 851.40 620.00 L 837.60 620.10 L 826.80 618.70 L 821.50 617.50 L 816.40 615.70 L 811.20 613.30 L 808.70 607.90 L 806.60 602.30 L 805.00 596.70 L 803.10 588.10 L 801.80 579.20 L 800.90 570.40 L 799.00 543.70 L 813.80 542.20 L 824.10 549.10 L 857.50 538.00 L 868.50 533.70 L 850.10 533.20 L 855.10 524.40 L 865.30 519.20 L 868.80 534.40 L 873.10 534.50 L 877.20 534.20 L 881.20 533.20 L 885.10 531.90 L 892.50 528.20 L 897.70 524.80 L 902.70 521.00 L 910.70 527.60 Z" fill="#f5b972" fill-rule="nonzero" node-id="70" stroke="none" target-height="111.99997" target-width="168.5" target-x="799" target-y="508.1"></path><path d="M 449.20 599.40 L 458.90 593.60 L 468.90 588.20 L 479.20 583.30 L 489.70 579.00 L 500.40 575.20 L 511.40 572.00 L 528.00 568.50 L 544.90 566.40 L 553.40 566.00 L 561.90 565.90 L 570.40 566.30 L 578.90 567.20 L 592.80 570.00 L 600.40 572.50 L 605.80 575.40 L 608.20 577.40 L 610.30 579.60 L 612.20 582.30 L 616.20 592.50 L 617.70 597.70 L 619.40 605.70 L 620.60 613.80 L 621.80 630.10 L 609.10 612.20 L 604.60 606.40 L 599.80 600.80 L 594.70 595.70 L 591.00 592.50 L 583.00 587.30 L 578.70 585.20 L 574.10 583.60 L 562.20 580.90 L 555.40 579.90 L 548.70 579.60 L 541.90 579.70 L 528.60 581.10 L 518.60 582.90 L 508.70 585.30 L 469.20 596.00 L 459.20 598.00 L 449.20 599.40 Z" fill="#f5b972" fill-rule="nonzero" node-id="72" stroke="none" target-height="64.19995" target-width="172.59998" target-x="449.2" target-y="565.9"></path><path d="M 365.20 579.30 L 390.50 586.40 L 440.70 602.00 L 446.60 603.30 L 452.40 604.00 L 458.20 604.10 L 463.90 603.70 L 475.30 601.90 L 483.80 599.80 L 509.10 592.20 L 517.70 589.90 L 526.30 588.10 L 532.00 587.30 L 549.50 586.80 L 555.20 587.00 L 560.70 587.80 L 566.10 589.00 L 571.50 590.70 L 576.60 592.80 L 581.50 595.40 L 586.30 598.30 L 590.80 601.70 L 594.90 605.30 L 598.80 609.30 L 602.30 613.60 L 605.50 618.30 L 608.20 623.10 L 610.50 628.30 L 612.40 633.70 L 562.90 652.30 L 546.50 658.90 L 549.10 663.10 L 556.30 676.40 L 558.90 680.60 L 564.00 687.00 L 569.20 691.00 L 574.80 691.80 L 580.40 692.00 L 585.90 691.90 L 594.20 691.00 L 602.50 689.50 L 610.70 687.50 L 635.00 680.80 L 630.30 692.40 L 628.10 698.50 L 625.50 709.00 L 624.70 717.30 L 624.80 721.40 L 625.50 725.40 L 626.60 729.30 L 629.40 734.80 L 631.30 737.40 L 635.90 742.30 L 641.00 746.20 L 645.20 748.60 L 658.60 755.20 L 663.90 758.60 L 668.10 762.90 L 669.70 765.40 L 671.00 768.40 L 668.20 773.60 L 664.90 778.30 L 661.20 782.70 L 657.10 786.80 L 652.70 790.50 L 648.00 793.90 L 637.80 799.70 L 627.00 804.20 L 615.90 807.30 L 606.50 809.20 L 568.70 815.40 L 559.30 817.30 L 550.10 819.50 L 540.90 822.30 L 531.60 825.70 L 522.70 829.50 L 514.00 833.80 L 497.20 843.50 L 452.70 873.40 L 440.30 881.10 L 431.80 886.00 L 423.10 890.40 L 406.30 898.00 L 398.10 901.30 L 389.60 904.20 L 380.90 906.70 L 372.10 908.70 L 363.20 910.20 L 349.80 911.40 L 336.50 911.20 L 329.90 910.40 L 323.40 909.30 L 317.10 907.70 L 310.80 905.60 L 304.70 903.10 L 298.80 900.10 L 293.10 896.50 L 287.50 892.40 L 280.30 886.20 L 273.40 879.70 L 266.90 872.90 L 260.70 865.70 L 254.90 858.40 L 244.10 842.90 L 239.10 834.80 L 233.00 823.80 L 227.40 812.50 L 222.20 800.90 L 217.50 789.20 L 213.20 777.40 L 206.70 756.80 L 204.50 748.20 L 201.10 730.60 L 199.00 712.90 L 198.10 699.50 L 197.00 659.30 L 205.50 669.90 L 214.60 680.20 L 220.90 686.70 L 227.60 692.90 L 234.60 698.70 L 240.10 702.70 L 245.80 706.30 L 251.70 709.70 L 273.40 719.60 L 289.30 726.30 L 310.70 734.40 L 332.50 741.40 L 343.60 744.30 L 354.70 746.80 L 365.90 748.80 L 377.10 750.20 L 388.40 751.10 L 396.90 751.40 L 414.00 750.60 L 422.60 749.70 L 428.90 749.80 L 435.20 750.30 L 454.00 753.10 L 464.40 753.80 L 472.90 753.00 L 477.90 751.90 L 487.80 748.60 L 492.50 746.30 L 501.50 740.80 L 509.50 734.10 L 513.20 730.20 L 516.50 726.20 L 519.40 721.90 L 522.00 717.40 L 524.10 712.70 L 525.80 707.80 L 527.10 702.80 L 527.90 697.50 L 526.80 691.50 L 525.20 685.40 L 522.10 677.70 L 517.80 670.50 L 512.50 664.40 L 509.30 661.80 L 505.90 659.60 L 502.00 657.80 L 491.20 653.70 L 477.00 650.50 L 459.60 647.70 L 445.30 644.90 L 434.40 641.60 L 429.10 639.30 L 424.00 636.50 L 419.00 633.20 L 411.60 627.10 L 404.70 620.70 L 398.00 613.80 L 378.80 592.70 L 372.10 585.80 L 365.20 579.30 Z M 310.90 856.40 L 307.40 839.30 L 322.30 832.10 L 312.10 846.10 L 321.10 852.70 L 322.30 850.00 L 327.20 841.80 L 328.60 839.00 L 329.50 836.30 L 329.60 832.40 L 329.10 830.30 L 326.80 828.70 L 324.50 827.70 L 322.10 827.20 L 319.60 827.20 L 317.10 827.50 L 312.10 829.40 L 307.60 832.50 L 305.60 834.40 L 302.50 838.60 L 301.50 840.90 L 300.60 845.40 L 300.80 847.60 L 301.60 849.60 L 303.00 851.70 L 304.80 853.40 L 307.40 854.90 L 310.90 856.40 Z M 407.50 853.50 L 408.30 855.80 L 409.30 857.60 L 410.60 858.80 L 412.10 859.70 L 415.80 860.40 L 419.80 859.80 L 421.80 859.00 L 424.50 857.40 L 426.80 855.30 L 428.90 851.90 L 430.00 848.30 L 429.80 845.20 L 428.80 843.10 L 422.60 834.80 L 421.60 832.80 L 410.60 844.70 L 408.10 849.30 L 407.50 853.50 Z M 351.30 858.40 L 341.60 874.60 L 355.90 886.30 L 358.90 882.90 L 361.40 879.20 L 363.50 875.40 L 366.60 867.00 L 367.60 862.60 L 363.10 866.40 L 350.40 878.50 L 351.30 858.40 Z" fill="#f5b972" fill-rule="nonzero" node-id="74" stroke="none" target-height="332.10004" target-width="474" target-x="197" target-y="579.3"></path><path d="M 600.80 657.60 L 698.00 621.10 L 722.40 612.30 L 747.00 604.00 L 780.00 593.90 L 796.70 589.30 L 795.10 591.90 L 793.40 594.10 L 791.40 595.80 L 787.90 598.00 L 784.10 599.80 L 732.90 615.80 L 689.50 631.10 L 637.60 650.20 L 611.60 659.40 L 576.60 670.80 L 558.90 676.00 L 562.60 672.70 L 566.50 670.00 L 570.70 667.70 L 575.20 665.80 L 580.00 664.40 L 574.50 660.70 L 577.50 661.50 L 583.40 661.90 L 587.80 661.40 L 592.20 660.30 L 600.80 657.60 Z" fill="#f5b972" fill-rule="nonzero" node-id="76" stroke="none" target-height="86.70001" target-width="237.79999" target-x="558.9" target-y="589.3"></path><path d="M 585.10 648.90 L 653.40 624.40 L 721.40 599.00 L 730.70 604.60 L 719.40 607.60 L 697.20 614.60 L 680.70 620.40 L 615.40 645.40 L 598.90 651.00 L 589.60 651.40 L 585.10 648.90 Z" fill="#f5b972" fill-rule="nonzero" node-id="78" stroke="none" target-height="52.400024" target-width="145.60004" target-x="585.1" target-y="599"></path><path d="M 563.40 679.50 L 579.30 675.60 L 595.00 671.40 L 610.60 666.70 L 633.80 659.10 L 656.80 651.10 L 725.70 625.90 L 748.70 617.80 L 764.20 612.70 L 795.40 603.40 L 793.00 617.90 L 771.40 625.10 L 749.90 632.80 L 685.60 656.50 L 664.10 664.20 L 642.50 671.40 L 620.60 678.10 L 599.10 683.40 L 591.80 684.60 L 586.90 685.00 L 582.10 685.00 L 577.30 684.50 L 570.30 682.80 L 563.40 679.50 Z" fill="#f5b972" fill-rule="nonzero" node-id="80" stroke="none" target-height="81.599976" target-width="232" target-x="563.4" target-y="603.4"></path><path d="M 629.00 722.40 L 638.60 728.20 L 648.50 733.50 L 658.60 738.20 L 679.30 746.70 L 692.70 751.50 L 695.10 752.80 L 697.00 754.30 L 698.70 756.10 L 700.50 758.80 L 701.70 761.90 L 702.50 765.30 L 702.80 768.70 L 702.60 772.20 L 702.10 775.80 L 701.10 779.30 L 698.30 785.50 L 695.40 789.60 L 692.20 793.20 L 688.60 796.60 L 684.80 799.70 L 676.50 805.00 L 663.20 811.60 L 645.50 817.80 L 622.80 823.80 L 595.30 829.90 L 572.40 835.50 L 554.50 841.10 L 547.10 844.00 L 540.00 847.30 L 533.10 851.00 L 522.90 857.20 L 493.60 877.20 L 484.90 882.90 L 476.10 888.20 L 467.00 893.20 L 457.80 897.80 L 448.30 902.00 L 438.70 905.80 L 428.90 909.20 L 419.00 912.20 L 409.00 914.80 L 398.90 916.90 L 388.70 918.50 L 378.30 919.70 L 405.50 908.20 L 418.90 902.20 L 432.00 895.70 L 440.60 890.90 L 449.00 885.90 L 457.10 880.40 L 493.20 854.80 L 505.60 846.80 L 514.00 841.80 L 522.70 837.20 L 531.50 833.00 L 545.10 827.80 L 559.50 823.90 L 612.30 814.70 L 622.60 812.20 L 629.40 810.20 L 642.60 805.10 L 648.90 801.90 L 655.00 798.20 L 660.90 793.90 L 667.40 788.50 L 670.50 785.40 L 673.50 782.10 L 676.00 778.50 L 677.90 774.70 L 679.30 769.50 L 679.30 766.80 L 679.00 764.10 L 678.10 761.40 L 676.60 758.50 L 671.80 754.90 L 666.70 751.70 L 645.40 740.00 L 639.00 735.30 L 633.50 729.60 L 631.10 726.20 L 629.00 722.40 Z" fill="#f5b972" fill-rule="nonzero" node-id="82" stroke="none" target-height="197.29999" target-width="324.5" target-x="378.3" target-y="722.4"></path><path d="M 417.40 845.30 L 420.20 845.70 L 422.80 846.80 L 423.30 847.50 L 423.10 849.10 L 422.10 850.30 L 420.60 851.30 L 418.90 852.00 L 416.50 851.90 L 415.60 850.50 L 415.70 849.40 L 417.40 845.30 Z" fill="#f5b972" fill-rule="nonzero" node-id="84" stroke="none" target-height="6.700012" target-width="7.6999817" target-x="415.6" target-y="845.3"></path></svg>